<?xml version="1.0" encoding="UTF-8"?>
<!-- Generator: Adobe Illustrator 17.1.0, SVG Export Plug-In . SVG Version: 6.00 Build 0)  -->
<!DOCTYPE svg PUBLIC "-//W3C//DTD SVG 1.1//EN" "http://www.w3.org/Graphics/SVG/1.1/DTD/svg11.dtd">
<svg version="1.1" id="Layer_1" xmlns="http://www.w3.org/2000/svg" xmlns:xlink="http://www.w3.org/1999/xlink" x="0px" y="0px" viewBox="0 0 200 205.6" enable-background="new 0 0 200 205.6" xml:space="preserve"><script xmlns=""/>
<g>
	<g>
		<rect x="52" y="11.8" fill="#EFF1C2" width="9.8" height="9.8"/>
		<rect x="52" y="22.9" fill="#EFF1C2" width="9.8" height="9.8"/>
		<rect x="52" y="34" fill="#EFF1C2" width="9.8" height="9.8"/>
		<rect x="52" y="45" fill="#EFF1C2" width="9.8" height="9.8"/>
		<rect x="63.1" y="22.9" fill="#EFF1C2" width="9.8" height="9.8"/>
		<rect x="63.1" y="34" fill="#EFF1C2" width="9.8" height="9.8"/>
		<rect x="63.1" y="45" fill="#EFF1C2" width="9.8" height="9.8"/>
		<rect x="63.1" y="56.1" fill="#EFF1C2" width="9.8" height="9.8"/>
		<rect x="74.2" y="34" fill="#EFF1C2" width="9.8" height="9.8"/>
		<rect x="74.2" y="45" fill="#EFF1C2" width="9.8" height="9.8"/>
		<rect x="74.2" y="56.1" fill="#EFF1C2" width="9.8" height="9.8"/>
		<rect x="74.2" y="67.2" fill="#EFF1C2" width="9.8" height="9.8"/>
		<rect x="85.2" y="45" fill="#EFF1C2" width="9.8" height="9.8"/>
		<rect x="85.2" y="56.1" fill="#EFF1C2" width="9.8" height="9.8"/>
		<rect x="85.2" y="67.2" fill="#EFF1C2" width="9.8" height="9.8"/>
		<rect x="85.2" y="78.2" fill="#EFF1C2" width="9.8" height="9.8"/>
		<rect x="9" y="54.9" fill="#EFF1C2" width="9.8" height="9.8"/>
		<rect x="20.1" y="54.9" fill="#EFF1C2" width="9.8" height="9.8"/>
		<rect x="31.1" y="54.9" fill="#EFF1C2" width="9.8" height="9.8"/>
		<rect x="42.2" y="54.9" fill="#EFF1C2" width="9.8" height="9.8"/>
		<rect x="20.1" y="65.9" fill="#EFF1C2" width="9.8" height="9.8"/>
		<rect x="31.1" y="65.9" fill="#EFF1C2" width="9.8" height="9.8"/>
		<rect x="42.2" y="65.9" fill="#EFF1C2" width="9.8" height="9.8"/>
		<rect x="53.3" y="65.9" fill="#EFF1C2" width="9.8" height="9.8"/>
		<rect x="31.1" y="77" fill="#EFF1C2" width="9.8" height="9.8"/>
		<rect x="42.2" y="77" fill="#EFF1C2" width="9.8" height="9.8"/>
		<rect x="53.3" y="77" fill="#EFF1C2" width="9.8" height="9.8"/>
		<rect x="64.3" y="77" fill="#EFF1C2" width="9.8" height="9.8"/>
		<rect x="42.2" y="88.1" fill="#EFF1C2" width="9.8" height="9.8"/>
		<rect x="53.3" y="88.1" fill="#EFF1C2" width="9.8" height="9.8"/>
		<rect x="64.3" y="88.1" fill="#EFF1C2" width="9.8" height="9.8"/>
		<rect x="75.4" y="88.1" fill="#EFF1C2" width="9.8" height="9.8"/>
		<rect x="95.1" y="88.1" fill="#EFF1C2" width="9.8" height="9.8"/>
		<rect x="85.2" y="97.9" fill="#EFF1C2" width="9.8" height="9.8"/>
		<rect x="104.9" y="97.9" fill="#EFF1C2" width="9.8" height="9.8"/>
		<rect x="95.1" y="107.7" fill="#EFF1C2" width="9.8" height="9.8"/>
	</g>
	<g>
		<rect x="9" y="140.9" fill="#EFF1C2" width="9.8" height="9.8"/>
		<rect x="20.1" y="140.9" fill="#EFF1C2" width="9.8" height="9.8"/>
		<rect x="31.1" y="140.9" fill="#EFF1C2" width="9.8" height="9.8"/>
		<rect x="42.2" y="140.9" fill="#EFF1C2" width="9.8" height="9.8"/>
		<rect x="20.1" y="129.9" fill="#EFF1C2" width="9.8" height="9.8"/>
		<rect x="31.1" y="129.9" fill="#EFF1C2" width="9.8" height="9.8"/>
		<rect x="42.2" y="129.9" fill="#EFF1C2" width="9.8" height="9.8"/>
		<rect x="53.3" y="129.9" fill="#EFF1C2" width="9.8" height="9.8"/>
		<rect x="31.1" y="118.8" fill="#EFF1C2" width="9.8" height="9.8"/>
		<rect x="42.2" y="118.8" fill="#EFF1C2" width="9.8" height="9.8"/>
		<rect x="53.3" y="118.8" fill="#EFF1C2" width="9.8" height="9.8"/>
		<rect x="64.3" y="118.8" fill="#EFF1C2" width="9.8" height="9.8"/>
		<rect x="42.2" y="107.7" fill="#EFF1C2" width="9.8" height="9.8"/>
		<rect x="53.3" y="107.7" fill="#EFF1C2" width="9.8" height="9.8"/>
		<rect x="64.3" y="107.7" fill="#EFF1C2" width="9.8" height="9.8"/>
		<rect x="75.4" y="107.7" fill="#EFF1C2" width="9.8" height="9.8"/>
		<rect x="52" y="184" fill="#EFF1C2" width="9.8" height="9.8"/>
		<rect x="52" y="172.9" fill="#EFF1C2" width="9.8" height="9.8"/>
		<rect x="52" y="161.8" fill="#EFF1C2" width="9.8" height="9.8"/>
		<rect x="52" y="150.8" fill="#EFF1C2" width="9.8" height="9.8"/>
		<rect x="63.1" y="172.9" fill="#EFF1C2" width="9.8" height="9.8"/>
		<rect x="63.1" y="161.8" fill="#EFF1C2" width="9.8" height="9.8"/>
		<rect x="63.1" y="150.8" fill="#EFF1C2" width="9.8" height="9.8"/>
		<rect x="63.1" y="139.7" fill="#EFF1C2" width="9.8" height="9.8"/>
		<rect x="74.2" y="161.8" fill="#EFF1C2" width="9.8" height="9.8"/>
		<rect x="74.2" y="150.8" fill="#EFF1C2" width="9.8" height="9.8"/>
		<rect x="74.2" y="139.7" fill="#EFF1C2" width="9.8" height="9.8"/>
		<rect x="74.2" y="128.6" fill="#EFF1C2" width="9.8" height="9.8"/>
		<rect x="85.2" y="150.8" fill="#EFF1C2" width="9.8" height="9.8"/>
		<rect x="85.2" y="139.7" fill="#EFF1C2" width="9.8" height="9.8"/>
		<rect x="85.2" y="128.6" fill="#EFF1C2" width="9.8" height="9.8"/>
		<rect x="85.2" y="117.6" fill="#EFF1C2" width="9.8" height="9.8"/>
	</g>
	<g>
		<g>
			<rect x="181.2" y="140.9" fill="#EFF1C2" width="9.8" height="9.8"/>
		</g>
		<g>
			<rect x="170.1" y="140.9" fill="#EFF1C2" width="9.8" height="9.8"/>
		</g>
		<g>
			<rect x="159" y="140.9" fill="#EFF1C2" width="9.8" height="9.8"/>
		</g>
		<g>
			<rect x="148" y="140.9" fill="#EFF1C2" width="9.8" height="9.8"/>
		</g>
		<g>
			<rect x="170.1" y="129.9" fill="#EFF1C2" width="9.8" height="9.8"/>
		</g>
		<g>
			<rect x="159" y="129.9" fill="#EFF1C2" width="9.8" height="9.8"/>
		</g>
		<g>
			<rect x="148" y="129.9" fill="#EFF1C2" width="9.8" height="9.8"/>
		</g>
		<g>
			<rect x="136.9" y="129.9" fill="#EFF1C2" width="9.8" height="9.8"/>
		</g>
		<g>
			<rect x="159" y="118.8" fill="#EFF1C2" width="9.8" height="9.8"/>
		</g>
		<g>
			<rect x="148" y="118.8" fill="#EFF1C2" width="9.8" height="9.8"/>
		</g>
		<g>
			<rect x="136.9" y="118.8" fill="#EFF1C2" width="9.8" height="9.8"/>
		</g>
		<g>
			<rect x="125.8" y="118.8" fill="#EFF1C2" width="9.8" height="9.8"/>
		</g>
		<g>
			<rect x="148" y="107.7" fill="#EFF1C2" width="9.8" height="9.8"/>
		</g>
		<g>
			<rect x="136.9" y="107.7" fill="#EFF1C2" width="9.8" height="9.8"/>
		</g>
		<g>
			<rect x="125.8" y="107.7" fill="#EFF1C2" width="9.8" height="9.8"/>
		</g>
		<g>
			<rect x="114.8" y="107.7" fill="#EFF1C2" width="9.8" height="9.8"/>
		</g>
		<g>
			<rect x="138.1" y="184" fill="#EFF1C2" width="9.8" height="9.8"/>
		</g>
		<g>
			<rect x="138.1" y="172.9" fill="#EFF1C2" width="9.8" height="9.8"/>
		</g>
		<g>
			<rect x="138.1" y="161.8" fill="#EFF1C2" width="9.8" height="9.8"/>
		</g>
		<g>
			<rect x="138.1" y="150.8" fill="#EFF1C2" width="9.8" height="9.8"/>
		</g>
		<g>
			<rect x="127.1" y="172.9" fill="#EFF1C2" width="9.8" height="9.8"/>
		</g>
		<g>
			<rect x="127.1" y="161.8" fill="#EFF1C2" width="9.8" height="9.8"/>
		</g>
		<g>
			<rect x="127.1" y="150.8" fill="#EFF1C2" width="9.8" height="9.8"/>
		</g>
		<g>
			<rect x="127.1" y="139.7" fill="#EFF1C2" width="9.8" height="9.8"/>
		</g>
		<g>
			<rect x="116" y="161.8" fill="#EFF1C2" width="9.8" height="9.8"/>
		</g>
		<g>
			<rect x="116" y="150.8" fill="#EFF1C2" width="9.8" height="9.8"/>
		</g>
		<g>
			<rect x="116" y="139.7" fill="#EFF1C2" width="9.8" height="9.8"/>
		</g>
		<g>
			<rect x="116" y="128.6" fill="#EFF1C2" width="9.8" height="9.8"/>
		</g>
		<g>
			<rect x="104.9" y="150.8" fill="#EFF1C2" width="9.8" height="9.8"/>
		</g>
		<g>
			<rect x="104.9" y="139.7" fill="#EFF1C2" width="9.8" height="9.8"/>
		</g>
		<g>
			<rect x="104.9" y="128.6" fill="#EFF1C2" width="9.8" height="9.8"/>
		</g>
		<g>
			<rect x="104.9" y="117.6" fill="#EFF1C2" width="9.8" height="9.8"/>
		</g>
	</g>
	<g>
		<g>
			<rect x="181.2" y="54.9" fill="#EFF1C2" width="9.8" height="9.8"/>
		</g>
		<g>
			<rect x="170.1" y="54.9" fill="#EFF1C2" width="9.8" height="9.8"/>
		</g>
		<g>
			<rect x="159" y="54.9" fill="#EFF1C2" width="9.8" height="9.8"/>
		</g>
		<g>
			<rect x="148" y="54.9" fill="#EFF1C2" width="9.8" height="9.8"/>
		</g>
		<g>
			<rect x="170.1" y="65.9" fill="#EFF1C2" width="9.8" height="9.8"/>
		</g>
		<g>
			<rect x="159" y="65.9" fill="#EFF1C2" width="9.8" height="9.8"/>
		</g>
		<g>
			<rect x="148" y="65.9" fill="#EFF1C2" width="9.8" height="9.8"/>
		</g>
		<g>
			<rect x="136.9" y="65.9" fill="#EFF1C2" width="9.8" height="9.8"/>
		</g>
		<g>
			<rect x="159" y="77" fill="#EFF1C2" width="9.8" height="9.8"/>
		</g>
		<g>
			<rect x="148" y="77" fill="#EFF1C2" width="9.8" height="9.8"/>
		</g>
		<g>
			<rect x="136.9" y="77" fill="#EFF1C2" width="9.8" height="9.8"/>
		</g>
		<g>
			<rect x="125.8" y="77" fill="#EFF1C2" width="9.8" height="9.8"/>
		</g>
		<g>
			<rect x="148" y="88.1" fill="#EFF1C2" width="9.8" height="9.8"/>
		</g>
		<g>
			<rect x="136.9" y="88.1" fill="#EFF1C2" width="9.8" height="9.8"/>
		</g>
		<g>
			<rect x="125.8" y="88.1" fill="#EFF1C2" width="9.8" height="9.8"/>
		</g>
		<g>
			<rect x="114.8" y="88.1" fill="#EFF1C2" width="9.8" height="9.8"/>
		</g>
		<g>
			<rect x="138.1" y="11.8" fill="#EFF1C2" width="9.8" height="9.8"/>
		</g>
		<g>
			<rect x="138.1" y="22.9" fill="#EFF1C2" width="9.8" height="9.8"/>
		</g>
		<g>
			<rect x="138.1" y="34" fill="#EFF1C2" width="9.8" height="9.8"/>
		</g>
		<g>
			<rect x="138.1" y="45" fill="#EFF1C2" width="9.8" height="9.8"/>
		</g>
		<g>
			<rect x="127.1" y="22.9" fill="#EFF1C2" width="9.8" height="9.8"/>
		</g>
		<g>
			<rect x="127.1" y="34" fill="#EFF1C2" width="9.8" height="9.8"/>
		</g>
		<g>
			<rect x="127.1" y="45" fill="#EFF1C2" width="9.8" height="9.8"/>
		</g>
		<g>
			<rect x="127.1" y="56.1" fill="#EFF1C2" width="9.8" height="9.8"/>
		</g>
		<g>
			<rect x="116" y="34" fill="#EFF1C2" width="9.8" height="9.8"/>
		</g>
		<g>
			<rect x="116" y="45" fill="#EFF1C2" width="9.8" height="9.8"/>
		</g>
		<g>
			<rect x="116" y="56.1" fill="#EFF1C2" width="9.8" height="9.8"/>
		</g>
		<g>
			<rect x="116" y="67.2" fill="#EFF1C2" width="9.8" height="9.8"/>
		</g>
		<g>
			<rect x="104.9" y="45" fill="#EFF1C2" width="9.8" height="9.8"/>
		</g>
		<g>
			<rect x="104.9" y="56.1" fill="#EFF1C2" width="9.8" height="9.8"/>
		</g>
		<g>
			<rect x="104.9" y="67.2" fill="#EFF1C2" width="9.8" height="9.8"/>
		</g>
		<g>
			<rect x="104.9" y="78.2" fill="#EFF1C2" width="9.8" height="9.8"/>
		</g>
	</g>
</g>
</svg>