<?xml version="1.0" encoding="UTF-8"?>
<!-- Generator: Adobe Illustrator 17.1.0, SVG Export Plug-In . SVG Version: 6.00 Build 0)  -->
<!DOCTYPE svg PUBLIC "-//W3C//DTD SVG 1.1//EN" "http://www.w3.org/Graphics/SVG/1.1/DTD/svg11.dtd">
<svg version="1.1" id="Layer_1" xmlns="http://www.w3.org/2000/svg" xmlns:xlink="http://www.w3.org/1999/xlink" x="0px" y="0px" viewBox="0 0 200 197" enable-background="new 0 0 200 197" xml:space="preserve"><script xmlns=""/>
<g>
	<g>
		<polygon fill="#23A38F" points="133.3,185 113.2,173.9 160.4,21.8 171.2,68.6   "/>
		<path fill="#F6EEE6" d="M168.1,74.1c4.5-14.7,0.1-24.4-10.5-35.3c-10.3-10.5-31.3-21-36.4-24.3c1,3.1,0.3,17,0.3,17    s40.7,43.3,43.1,42.5L168.1,74.1z"/>
		<path fill="#FFEBC2" d="M165.3,75c0.8-15.4-3.2-21.2-14-32.1c-9.1-9.2-36.4-19.4-41.9-22.4c-0.9,5.6-4.1,18.6-4.1,18.6    s53.6,39.1,55.9,38.1L165.3,75z"/>
		<path fill="#F6EEE6" d="M157.2,76.7c0.6-9.4-10.3-18-17.3-24c-15.7-13.4-56.1-26.4-76.7-28.4l0.2,15.3L157.2,76.7z"/>
		<path fill="#E8D5C1" d="M157.8,77.9c-0.1-8.6-11.2-16.1-18.8-21.9c-17-13-57.2-26.3-78.3-29.1l-2.4,12.9L157.8,77.9z"/>
		<polygon fill="#23A38F" points="118.6,184.1 20.6,152.1 56.7,33.1 155.9,68.1   "/>
		<path fill="#2E313D" d="M116.4,183.9l16.9,1.1c0,0,37.2-108.8,37.9-116.4c0.3-2.7-15.6-0.7-15.6-0.7L116.4,183.9z"/>
	</g>
	<polygon fill="#FFAD29" points="59,93.8 116.7,111.2 128.7,75.6 71,58.2  "/>
</g>
</svg>