<?xml version="1.0" encoding="UTF-8"?>
<!-- Generator: Adobe Illustrator 17.1.0, SVG Export Plug-In . SVG Version: 6.00 Build 0)  -->
<!DOCTYPE svg PUBLIC "-//W3C//DTD SVG 1.1//EN" "http://www.w3.org/Graphics/SVG/1.1/DTD/svg11.dtd">
<svg version="1.1" id="Layer_1" xmlns="http://www.w3.org/2000/svg" xmlns:xlink="http://www.w3.org/1999/xlink" x="0px" y="0px" viewBox="0 0 200 376" enable-background="new 0 0 200 376" xml:space="preserve"><script xmlns=""/>
<g>
	<g>
		<rect x="80.2" y="73.6" fill="#EFF1C2" width="18.7" height="18.7"/>
		<rect x="101.2" y="73.6" fill="#EFF1C2" width="18.7" height="18.7"/>
		<rect x="122.2" y="73.6" fill="#EFF1C2" width="18.7" height="18.7"/>
		<rect x="101.2" y="115.6" fill="#EEC2A1" width="18.7" height="18.7"/>
		<rect x="80.2" y="115.6" fill="#EEC2A1" width="18.7" height="18.7"/>
		<rect x="80.2" y="94.6" fill="#EEC2A1" width="18.7" height="18.7"/>
		<rect x="101.2" y="94.6" fill="#EEC2A1" width="18.7" height="18.7"/>
		<rect x="122.2" y="94.6" fill="#EEC2A1" width="18.7" height="18.7"/>
		<rect x="122.2" y="115.6" fill="#EEC2A1" width="18.7" height="18.7"/>
		<rect x="122.2" y="136.6" fill="#EFF1C2" width="18.7" height="18.7"/>
		<rect x="101.2" y="136.6" fill="#EFF1C2" width="18.7" height="18.7"/>
		<rect x="80.2" y="136.6" fill="#EFF1C2" width="18.7" height="18.7"/>
		<rect x="59.1" y="136.6" fill="#EFF1C2" width="18.7" height="18.7"/>
		<rect x="38.1" y="136.6" fill="#EFF1C2" width="18.7" height="18.7"/>
		<rect x="143.2" y="136.6" fill="#EFF1C2" width="18.7" height="18.7"/>
		<rect x="59.1" y="115.6" fill="#EEC2A1" width="18.7" height="18.7"/>
		<rect x="59.1" y="94.6" fill="#EEC2A1" width="18.7" height="18.7"/>
		<rect x="59.1" y="73.6" fill="#EFF1C2" width="18.7" height="18.7"/>
		<rect x="40.5" y="52.6" fill="#F0563D" width="18.7" height="18.7"/>
	</g>
	<rect x="61.5" y="52.6" fill="#F0563D" width="18.7" height="18.7"/>
	<rect x="82.5" y="52.6" fill="#F0563D" width="18.7" height="18.7"/>
	<rect x="103.5" y="52.6" fill="#F0563D" width="18.7" height="18.7"/>
	<rect x="124.5" y="52.6" fill="#F0563D" width="18.7" height="18.7"/>
	<rect x="38.1" y="157.7" fill="#F0563D" width="18.7" height="18.7"/>
	<rect x="59.1" y="157.7" fill="#EFF1C2" width="18.7" height="18.7"/>
	<rect x="80.2" y="157.7" fill="#EEC2A1" width="18.7" height="18.7"/>
	<rect x="101.2" y="157.7" fill="#EEC2A1" width="18.7" height="18.7"/>
	<rect x="122.2" y="157.7" fill="#EFF1C2" width="18.7" height="18.7"/>
	<rect x="143.2" y="157.7" fill="#F0563D" width="18.7" height="18.7"/>
	<rect x="124.5" y="31.6" fill="#F0563D" width="18.7" height="18.7"/>
	<rect x="103.5" y="31.6" fill="#F0563D" width="18.7" height="18.7"/>
	<rect x="82.5" y="31.6" fill="#F0563D" width="18.7" height="18.7"/>
	<rect x="61.5" y="31.6" fill="#F0563D" width="18.7" height="18.7"/>
	<rect x="124.5" y="10.6" fill="#F0563D" width="18.7" height="18.7"/>
	<rect x="103.5" y="10.6" fill="#F0563D" width="18.7" height="18.7"/>
	<rect x="82.5" y="10.6" fill="#F0563D" width="18.7" height="18.7"/>
	<rect x="61.5" y="10.6" fill="#F0563D" width="18.7" height="18.7"/>
	<rect x="40.5" y="31.6" fill="#F0563D" width="18.7" height="18.7"/>
	<rect x="40.5" y="10.6" fill="#F0563D" width="18.7" height="18.7"/>
	<rect x="19.5" y="10.6" fill="#F0563D" width="18.7" height="18.7"/>
	<rect x="19.5" y="52.6" fill="#F0563D" width="18.7" height="18.7"/>
	<rect x="19.5" y="73.6" fill="#F0563D" width="18.7" height="18.7"/>
	<rect x="19.5" y="99.3" fill="#EFF1C2" width="18.7" height="18.7"/>
	<rect x="19.5" y="31.6" fill="#F0563D" width="18.7" height="18.7"/>
	<rect x="80.2" y="178.7" fill="#EFF1C2" width="18.7" height="18.7"/>
	<rect x="80.2" y="199.7" fill="#EFF1C2" width="18.7" height="18.7"/>
	<rect x="122.2" y="178.7" fill="#EFF1C2" width="18.7" height="18.7"/>
	<rect x="122.2" y="199.7" fill="#F0563D" width="18.7" height="18.7"/>
	<rect x="122.2" y="220.7" fill="#2E313D" width="18.7" height="18.7"/>
	<rect x="17.1" y="157.7" fill="#F0563D" width="18.7" height="18.7"/>
	<rect x="164.2" y="283.7" fill="#F0563D" width="18.7" height="18.7"/>
	<rect x="17.1" y="283.7" fill="#F0563D" width="18.7" height="18.7"/>
	<rect x="61.5" y="346.7" fill="#EEC2A1" width="18.7" height="18.7"/>
	<rect x="40.5" y="346.7" fill="#EEC2A1" width="18.7" height="18.7"/>
	<rect x="19.5" y="346.7" fill="#EEC2A1" width="18.7" height="18.7"/>
	<rect x="140.9" y="346.7" fill="#EEC2A1" width="18.7" height="18.7"/>
	<rect x="161.9" y="346.7" fill="#EEC2A1" width="18.7" height="18.7"/>
	<rect x="61.5" y="283.7" fill="#F0563D" width="18.7" height="18.7"/>
	<rect x="61.5" y="304.7" fill="#F0563D" width="18.7" height="18.7"/>
	<rect x="61.5" y="325.7" fill="#F0563D" width="18.7" height="18.7"/>
	<rect x="119.8" y="346.7" fill="#EEC2A1" width="18.7" height="18.7"/>
	<rect x="119.8" y="283.7" fill="#F0563D" width="18.7" height="18.7"/>
	<rect x="119.8" y="304.7" fill="#F0563D" width="18.7" height="18.7"/>
	<rect x="119.8" y="325.7" fill="#F0563D" width="18.7" height="18.7"/>
	<rect x="17.1" y="178.7" fill="#F0563D" width="18.7" height="18.7"/>
	<rect x="17.1" y="199.7" fill="#F0563D" width="18.7" height="18.7"/>
	<rect x="17.1" y="220.7" fill="#F0563D" width="18.7" height="18.7"/>
	<rect x="17.1" y="241.7" fill="#F0563D" width="18.7" height="18.7"/>
	<rect x="17.1" y="262.7" fill="#EFF1C2" width="18.7" height="18.7"/>
	<rect x="38.1" y="262.7" fill="#F0563D" width="18.7" height="18.7"/>
	<rect x="164.2" y="157.7" fill="#F0563D" width="18.7" height="18.7"/>
	<rect x="164.2" y="178.7" fill="#F0563D" width="18.7" height="18.7"/>
	<rect x="164.2" y="199.7" fill="#F0563D" width="18.7" height="18.7"/>
	<rect x="164.2" y="220.7" fill="#F0563D" width="18.7" height="18.7"/>
	<rect x="164.2" y="241.7" fill="#F0563D" width="18.7" height="18.7"/>
	<rect x="164.2" y="262.7" fill="#EFF1C2" width="18.7" height="18.7"/>
	<rect x="143.2" y="262.7" fill="#F0563D" width="18.7" height="18.7"/>
	<rect x="122.2" y="262.7" fill="#F0563D" width="18.7" height="18.7"/>
	<rect x="101.2" y="262.7" fill="#F0563D" width="18.7" height="18.7"/>
	<rect x="80.2" y="262.7" fill="#F0563D" width="18.7" height="18.7"/>
	<rect x="59.1" y="262.7" fill="#F0563D" width="18.7" height="18.7"/>
	<rect x="38.1" y="241.7" fill="#F0563D" width="18.7" height="18.7"/>
	<rect x="59.1" y="241.7" fill="#F0563D" width="18.7" height="18.7"/>
	<rect x="80.2" y="241.7" fill="#F0563D" width="18.7" height="18.7"/>
	<rect x="101.2" y="241.7" fill="#F0563D" width="18.7" height="18.7"/>
	<rect x="122.2" y="241.7" fill="#F0563D" width="18.7" height="18.7"/>
	<rect x="143.2" y="241.7" fill="#F0563D" width="18.7" height="18.7"/>
	<rect x="143.2" y="220.7" fill="#2E313D" width="18.7" height="18.7"/>
	<rect x="143.2" y="199.7" fill="#F0563D" width="18.7" height="18.7"/>
	<rect x="143.2" y="178.7" fill="#F0563D" width="18.7" height="18.7"/>
	<rect x="101.2" y="178.7" fill="#EFF1C2" width="18.7" height="18.7"/>
	<rect x="101.2" y="199.7" fill="#EFF1C2" width="18.7" height="18.7"/>
	<rect x="101.2" y="220.7" fill="#2E313D" width="18.7" height="18.7"/>
	<rect x="80.2" y="220.7" fill="#2E313D" width="18.7" height="18.7"/>
	<rect x="59.1" y="220.7" fill="#2E313D" width="18.7" height="18.7"/>
	<rect x="59.1" y="199.7" fill="#F0563D" width="18.7" height="18.7"/>
	<rect x="59.1" y="178.7" fill="#EFF1C2" width="18.7" height="18.7"/>
	<rect x="38.1" y="178.7" fill="#F0563D" width="18.7" height="18.7"/>
	<rect x="38.1" y="199.7" fill="#F0563D" width="18.7" height="18.7"/>
	<rect x="38.1" y="220.7" fill="#2E313D" width="18.7" height="18.7"/>
</g>
</svg>