<?xml version="1.0" encoding="UTF-8"?>
<!-- Generator: Adobe Illustrator 17.1.0, SVG Export Plug-In . SVG Version: 6.00 Build 0)  -->
<!DOCTYPE svg PUBLIC "-//W3C//DTD SVG 1.1//EN" "http://www.w3.org/Graphics/SVG/1.1/DTD/svg11.dtd">
<svg version="1.1" id="Layer_1" xmlns="http://www.w3.org/2000/svg" xmlns:xlink="http://www.w3.org/1999/xlink" x="0px" y="0px" viewBox="0 0 200 141.6" enable-background="new 0 0 200 141.6" xml:space="preserve"><script xmlns=""/>
<g>
	<g>
		<g>
			<g>
				<g>
					<path fill="#87AFAC" d="M107.9,131.5c-1.6-8.2-0.5-17.3,0.6-26.1c1.2-10,2.4-19.5-0.5-26.6l1.5-0.6c3.1,7.5,1.9,17.2,0.7,27.5       c-1.1,8.6-2.2,17.6-0.6,25.5L107.9,131.5z"/>
				</g>
			</g>
			<g>
				<g>
					<path fill="#87AFAC" d="M123.9,126.9c0-1.2-1.1-28.7-0.4-45l1.7,0.1c-0.7,16.2,0.3,43.7,0.4,44.9L123.9,126.9z"/>
				</g>
			</g>
		</g>
		<path fill="#2DA48E" d="M175.6,58.3c-3.6,6.7-10.1,12.7-18,17.5c-6.4,3.9-13.6,7-20.9,9.1c-1.7,0.5-3.5,1-5.2,1.3    c-7.8,1.8-15.5,2.4-21.9,1.5c-2.3-0.3-5.5-1.4-9.2-3.2c-1.8-0.9-3.7-1.8-5.6-3c-0.6-0.4-1.3-0.7-1.9-1.1c0,0-0.1,0-0.1-0.1    c-4.4-2.6-8.9-5.8-13.2-9.2c-1.5-1.2-3-2.5-4.5-3.8c-8.8-8-15-16.9-12.6-23.7l-3.3,3c-5.2-6.3,3.6-19.3,16.7-20.4    c9.5-0.8,17.8,7.3,25.6,14c1.3,1.1,2.6,2.2,3.9,3.2c1.2,0.9,2.4,1.7,3.6,2.5c12.4,7.4,26.4,12.4,40.7,13.8    C158.4,60.7,167.1,60.2,175.6,58.3z"/>
		<path fill="#FF5330" d="M75.9,52.1l-7.4-8.3c-0.8,0.2-1.6,0.4-2.4,0.6l1.5-8C56.4,33.6,43,25.4,34,17.8    c4.4,6.7,16.2,21.9,24.2,27.8c-10.7,1.5-23.1,2.1-33.8,4.4c15.8,5.1,33,3.1,48.6,10.5C76,58.7,76.9,55.9,75.9,52.1z"/>
		<path fill="#F19A2C" d="M106.4,64.2c-7.1-29,30.3-45.2,54.5-52.4c6.2,15-4.3,39.2-17.5,48.4c-7.3,5.2-16,5.8-24.1,7.3    C111.5,69,106.4,64.2,106.4,64.2z"/>
		<path fill="#ECB814" d="M66.8,33.3C54.3,43.4,76.1,67.3,89,54C103.4,39.2,73.4,21.5,66.8,33.3z"/>
		<path fill="#ECB814" d="M175.6,58.3c-3.6,6.7-10.1,12.7-18,17.5c-5-4.1-8.1-10-7.8-16C158.4,60.7,167.1,60.2,175.6,58.3z"/>
		<g>
			<path fill="#FFFFFF" d="M90.6,65.7l0.9-0.5c-2.5,1.6-0.1,5.1,2.3,3C97.1,65.4,92.9,62.7,90.6,65.7z"/>
			<path fill="#FFFFFF" d="M109.8,75.3l0.8-0.2c-1.8,3.5,3,5.4,4.6,1.8C116.9,73.4,110.4,71.7,109.8,75.3z"/>
			<path fill="#FFFFFF" d="M105.4,43.5c-0.5,0.7-1.3,1.2-2.4,1.3c-2.4,0.1-2.5-2.6-1.5-4.5C102.8,41.5,104.1,42.6,105.4,43.5z"/>
			<path fill="#FFFFFF" d="M135.1,69.1c-0.2,0.2-0.3,0.4-0.5,0.6l0.4-0.1c-0.2,0.1-0.4,0.1-0.5,0.2c-0.3,0.4-0.5,0.9-0.7,1.4     c0.3,1.1,1.9,2.2,3.5,1.5C140.5,71.5,138,68.9,135.1,69.1z"/>
			<path fill="#FFFFFF" d="M134.4,82.7c-1,0.3-1.9,0.8-2.7,1.5c-0.2,0.7-0.3,1.4-0.3,2c1.7-0.4,3.5-0.8,5.2-1.3c0,0,0-0.1,0-0.1     C136.3,83.8,135.4,83.2,134.4,82.7z"/>
			<path fill="#FFFFFF" d="M80.1,64.7c-0.7,0-1.5,0.1-2.1,0.3c-0.4,0.1-1.5,0.4-2.3,0.9c-0.3,0.5-0.5,1.1-0.6,1.6l4.5,3.8     c0.1,0,0.2,0,0.3-0.1C83.4,70.3,82.4,66.3,80.1,64.7z"/>
			<path fill="#FFFFFF" d="M99.7,79.5c-1.5-0.1-2.9,0.3-4.2,1.1c-0.3,0.3-0.6,0.7-0.7,1c2,1.1,3.9,2.1,5.6,3     C101.7,82.6,101,80.6,99.7,79.5z"/>
			<path fill="#FFFFFF" d="M148.7,71.1c-0.6,0.7-1.1,1.8,0.2,1.8c1.4,0,1.3-1.1,0.7-1.8C149.3,71,149,71,148.7,71.1z"/>
		</g>
	</g>
	<g>
		<g>
			<path fill="#1D3130" d="M76.5,46.1c-1.3,0-2.6-0.4-3.4-1.5c-0.5-0.7-0.7-1.7-0.5-2.7c0.2-1.1,0.9-2.2,1.9-2.7l0.6,1     c-0.6,0.4-1.2,1.2-1.3,2c-0.1,0.5-0.1,1.1,0.3,1.8c2,2.7,8-0.6,8.7-1l0.6,1C82.5,44.4,79.3,46.1,76.5,46.1z"/>
		</g>
	</g>
</g>
</svg>