<?xml version="1.0" encoding="UTF-8"?>
<!-- Generator: Adobe Illustrator 17.1.0, SVG Export Plug-In . SVG Version: 6.00 Build 0)  -->
<!DOCTYPE svg PUBLIC "-//W3C//DTD SVG 1.1//EN" "http://www.w3.org/Graphics/SVG/1.1/DTD/svg11.dtd">
<svg version="1.1" id="Layer_1" xmlns="http://www.w3.org/2000/svg" xmlns:xlink="http://www.w3.org/1999/xlink" x="0px" y="0px" viewBox="0 0 200 197" enable-background="new 0 0 200 197" xml:space="preserve"><script xmlns=""/>
<g>
	<g>
		<g>
			<path fill="#F07D65" d="M30.4,131.8c-4.1-2.5-10.6-6.1-13.6-2.4c-7.9,9.6,14.8,18,20.8,8.4L30.4,131.8z"/>
			<path fill="#B45E4C" d="M38.3,136.4c-5.2,0.2-11.1-5.4-15.7-1.4c2,6.6,11.1,3.7,16.2,3.5L38.3,136.4z"/>
		</g>
		<g>
			<path fill="#F07D65" d="M175.7,108.8c1.2-4.1,7.9-9.9,15.3-7.4c0.4,8.3-6.3,13.9-13.6,16.5c-1.7-0.6-1.3-2,1.4-4L175.7,108.8z"/>
			<path fill="#B45E4C" d="M179.3,110.3c0.3-2.1,3.1-4.1,6.3-4.3c0.8,4.9-4.8,6.7-8.7,7.8c0.8-0.7,1.8-1.2,2.9-1.5L179.3,110.3z"/>
		</g>
		<path fill="#EEC2A1" d="M30.3,89.1c-3.7,34.1,0.1,88.9,43.8,94.6c24.7,3.3,71.8-8,94.1-19.4c20.6-10.5,14.8-26,12.6-45    c-1.5-12.6,0.7-36.3-6.9-46.2c-14.1-18.3-76.4,3.9-97.7,7.7C65.8,82.7,27.8,92.4,28,87.7L30.3,89.1z"/>
		<path fill="#F07D65" d="M106.3,137.9c0.7,4.3,7.5,7.6,11.3,4.9c6.8-4.9-5.2-23.8-7.5-14.1C110.2,128.6,105.8,134.4,106.3,137.9z"/>
		<path fill="#2E313D" d="M133.1,97.5c1.7,1.8,15.6,6.1,17.7,2c3.7-7.3-18.1-8.2-20.5-5C129.6,95.3,133.1,97.5,133.1,97.5z"/>
		<path fill="#2E313D" d="M70.7,113.2c-4.4,2-14,1.2-13,6.4c1.3,6.6,16.8-0.3,21.3-4.9C75.4,112,72.6,112.3,70.7,113.2z"/>
		<g>
			<g>
				<g>
					<path fill="#6B3321" d="M73.3,134.2c-2,0.5-4.1-0.1-5.9-1.7l0.9-1c1.9,1.7,4.1,2,6.1,0.9c2.8-1.6,4.5-5.5,3.9-8.9l1.3-0.2       c0.7,4-1.2,8.4-4.6,10.3C74.5,133.8,73.9,134.1,73.3,134.2z"/>
				</g>
			</g>
			<g>
				<g>
					<path fill="#6B3321" d="M137.9,117.6c-1.3,0.3-3.1,0.2-5.2-1.2l0.7-1.1c1.9,1.2,3.6,1.5,5.2,0.6c2.3-1.2,4-4.7,4-8.5l1.3,0       c-0.1,4.3-2,8.3-4.7,9.7C138.9,117.3,138.4,117.5,137.9,117.6z"/>
				</g>
			</g>
		</g>
		<path fill="#F07D65" d="M143.3,139c4.8,1.4,13.8,0.3,16.9-4.1c4.5-6.3-1.1-9.5-9.4-8.9C147.1,126.3,126.2,134.1,143.3,139z"/>
	</g>
	<path fill="#F07D65" d="M66.2,151.2c4.8,1.4,13.8,0.3,16.9-4.1c4.5-6.3-0.7-10.6-9.4-8.9C70.1,138.9,49.2,146.3,66.2,151.2z"/>
</g>
<g>
	<g>
		<g>
			<path fill="#F0563D" d="M186.3,99.9L186.3,99.9C186.3,99.9,186.3,99.9,186.3,99.9c-1.1,0.6-2.1,1.1-3,1.6     c-0.2,0.1-0.3,0.2-0.5,0.3c0,0,0,0,0,0c0,0,0,0,0,0c-1.1,0.6-2,1.2-2.8,1.7c-0.2,0.1-0.4,0.2-0.6,0.4c0,0,0,0,0,0     c-3.4,2.1-5.6,3.6-10.4,5.1c-1.3-3.3-5.3-6.5-8.8-8.9c-2.3-1.6-5.6-2.8-9.3-3.5c-5.3-1-11.5-1-16.5,0.4l0,0     c-0.1,0-0.2,0.1-0.3,0.1c-0.3,0.1-0.7,0.2-1,0.3c-2.4,0.8-4.5,1.9-6.1,3.4c-6.6,4.7-8.9,10.9-8.2,16.8     c-5.3,0.2-11.8,1.2-14.7,3.4c-0.4-4.3-2.1-8.2-5.4-10.8c-8.3-6.6-25.2-1.4-32.3,1.1c-8.9,3-13.1,9.9-13.7,17.1     c-9.7,3.5-15.6,3.4-22.1,3c-0.4,0-0.7,0-1.1-0.1h0c-0.9-0.1-1.8-0.1-2.8-0.2c1.4,0.4,2.8,0.8,4,1.1c0,0,0.1,0,0.1,0     c8.3,2.2,13.8,2.3,22.2,2.2c0.9,4.5,3.1,8.8,6.4,12.1c1.9,1.9,4.2,3.5,6.7,4.5l0,0c7.7,3.1,18.1,1.6,29.8-8.9     c4.6-4.1,7.6-10.7,8.1-17.1c4.9-0.9,12-0.9,15.9-2.6c2.8,7.1,9.7,13,18.3,14.4c6.4,1,13.6-0.5,20.8-5.9c0.8-0.6,1.5-1.2,2.2-1.9     c5.5-5.1,7.7-11.2,6.8-16.9c2.8-1.3,5.3-2.4,7.6-3.5c1.5-0.8,3-1.5,4.3-2.3c2.7-1.7,4.9-3.4,6.2-5.6c0.2-0.3,0.4-0.6,0.5-0.9     c0.1-0.1,0.1-0.3,0.2-0.4C186.7,99.6,186.5,99.8,186.3,99.9z M98.5,135c-3.3,3.6-7.1,7.1-11.3,9.6c-0.2,0.1-0.5,0.3-0.7,0.4     c-1,0.9-2.2,1.6-3.4,2.2c-0.1,0-0.2,0.1-0.3,0.1c-3.2,1.5-4.8,2.1-8.4,2.3c-1.7,0.1-3.5,0-5-0.6c-3.4-1.3-4.5-1.8-7.2-4.2     c-0.3-0.3-0.6-0.6-0.9-0.9c-0.9-1-1.6-2.1-2.4-3.2c0-0.1-0.1-0.1-0.1-0.2c-0.5-0.7-1-1.4-1.3-2.2c-1.2-2.1-1.9-4.6-1.9-7.1     c0-3.7,1.4-6.8,3.7-9.5c0.1-0.2,0.3-0.3,0.4-0.4c1.1-1.3,2.5-2.4,3.9-3.4c1.4-1.2,2.9-2,4.5-2.6c2.1-1,4.3-1.9,6.4-2.6h0     c0.2-0.1,0.3-0.1,0.5-0.2c3-1,6.1-1.5,9.3-1.8c2.6-0.3,5.6-0.1,8,0.9c2.4,0.7,4.5,1.9,6.2,3.6c1.7,1.8,3,3.8,3.6,6.2     C103.5,126.4,101.9,131.2,98.5,135z M166,118.4c-0.7,2.4-1.9,4.5-3.6,6.2c-0.8,1-1.7,1.9-2.7,2.8c-1.9,1.8-4,3.3-6.3,4.4     c-3.2,1.5-6.5,2.7-10.2,2.6c-1.5-0.1-2.9-0.2-4.2-0.5c-0.8,0.1-1.5,0.1-2.3,0c-4.2-0.3-8.1-2.6-10.6-6.2c-1.4-1.2-2.6-2.6-3.3-4     c-1.8-4.1-1.4-2.9-2-7.3c-0.2-1.3,0.1-2.7,0.5-4c0.8-2.4,1.9-4.9,3.9-6.6c1.6-1.4,3.3-2.6,5.1-3.4c0.4-0.3,0.9-0.7,1.4-1     c1.7-1.1,3.6-1.7,5.5-2c0.5-0.1,1-0.1,1.5-0.2c1.6-0.3,3.3-0.3,4.8,0.1c0.2,0,0.4,0,0.6-0.1c2.2-0.2,4.3,0,6.4,0.5     c1,0.2,2.1,0.5,3.1,0.9c5.8,0.5,10.8,4.6,12.4,10.3C166.6,113.4,166.6,115.9,166,118.4z"/>
		</g>
	</g>
</g>
<g>
	<path fill="#462419" d="M176.7,74.6c0.9-2.2,0-6.8-3.7-15.3c-14.3-32.7-69.1-45.6-89.3-39.1c-14.1,4.6-34.4,7.1-46.7,21.3   c-12.7,14.7-15.7,49.7-18.5,69.3l0.4,0c-0.7,2.7-1.5,6-2.7,10c0.8-0.2,3.6-1.6,4.4-1.9c0.4,1,0.9,2,1.3,3c1.5,0.4,3-1.9,4.3-2.4   c-1.8,1.5-3.3,3.5-5.4,4.9c6-0.8,11.9-2.7,17.3-5.9c6.7-1.4,12.9-3.7,18.6-7.4c-2.8,2.1-4.6,4.2-7,6.3c8.3-5.2,17.6-8.9,25.8-14.4   c-0.1,0.2-0.1,0.5-0.2,0.8c8.5-3.9,17-6.9,24.5-12.8c-2.4,2.7-4.4,7.3-6.5,10.1c16.1-6.6,33.4-19.5,48.2-29.4c0.8,0,1.6,0,2.5,0   c4.7,7.9,10.6,17.3,18.4,19c-1.3-2.8-2.2-5.8-3.3-8.5c1.9,3.4,7.9,8.6,10.6,12.1c0.9-1.7,1.2-3.3,2.2-5c3.6,4.3,8.2,9.6,11.9,13.7   C180.4,94.9,181.1,81.7,176.7,74.6z M39.1,117.9c0.6-0.4,1.1-0.7,1.7-1.1C40.3,117.2,39.7,117.5,39.1,117.9z"/>
</g>
<path fill="#6B5047" d="M130.6,34.5c-21.5-7.2-50.4,3.4-62.3,23.7c10.3-1.5,21.4-6.6,32-5.8c-3.1,7.2-14.2,9.9-18.5,16  c9.9,1.1,20.4-3.4,30.1-3.2c-0.8,1.9-1.7,3.7-3.6,5c6.1-2.3,12.1-4.5,17.8-7.4c-0.2,1.2,0.4,2.5-0.6,4.2c7.5-3.4,13.9-8.3,16-16.4  C144.4,39.2,135.2,36,130.6,34.5z"/>
<path fill="#6B5047" d="M160.1,64c-0.3-2-1.4-4.3-2.4-6.2c3,2,5.6,5.2,8.8,6.1c-1.3-8.3-14.2-26.9-20-19.8c-7.9,9.6,1,27.1,11,28.8  c0.5-4.4-1.4-8.4-2.4-12.6C156.5,61.9,158.6,62.9,160.1,64z"/>
</svg>