<?xml version="1.0" encoding="UTF-8"?>
<!-- Generator: Adobe Illustrator 17.1.0, SVG Export Plug-In . SVG Version: 6.00 Build 0)  -->
<!DOCTYPE svg PUBLIC "-//W3C//DTD SVG 1.1//EN" "http://www.w3.org/Graphics/SVG/1.1/DTD/svg11.dtd">
<svg version="1.1" id="Layer_1" xmlns="http://www.w3.org/2000/svg" xmlns:xlink="http://www.w3.org/1999/xlink" x="0px" y="0px" viewBox="0 0 200 206" enable-background="new 0 0 200 206" xml:space="preserve"><script xmlns=""/>
<g>
	<path fill="#FFFFFF" d="M82.5,17c19.1,2.6,52.7,7.9,75.4,40.5c15.3,22,16.4,72.9,2.6,97.4c-17.6,31.1-60.1,25.3-90.4,23.8   C21.3,176.2,6.9,112,14.1,74.8C19.7,46.2,47.9,12.2,82.5,17z"/>
	<g>
		<path fill="#F0AD44" d="M102.9,80.2c23.7,4.7,67.9,24,87.6,40.7c-30.2,5.1-63.5-1.9-91.5-8.8C97.8,102.1,89.9,87.3,102.9,80.2z"/>
		<g>
			<g>
				<path fill="#385052" d="M119.6,68.8c1.7-0.2,3.4-0.8,5.2-2l0.2-0.1l0-0.2c0.1-1.8-0.1-3.4-0.3-5.2l0-0.4l-1,0.1l0,0.4      c0.2,1.6,0.4,3.2,0.3,4.8c-2.5,1.6-4.9,2.2-7,1.5c-2.2-0.7-4-2.7-5.3-5.7l-0.9,0.4c1.3,3.3,3.4,5.5,5.9,6.3      C117.7,68.8,118.6,68.9,119.6,68.8z"/>
			</g>
			<g>
				<path fill="#385052" d="M67.4,77.3c1.4-0.1,2.7-0.7,3.5-1.6c1.1-1.2,1.4-3,0.6-5l-0.9,0.3c0.6,1.7,0.5,3-0.4,4      c-1.2,1.2-3.5,1.6-5.7,1c-3.2-0.9-5.4-3.5-6.1-6.9l-1,0.2c0.7,3.8,3.2,6.6,6.8,7.6C65.3,77.3,66.3,77.4,67.4,77.3z"/>
			</g>
		</g>
		<path fill="#F07D65" d="M69.6,85.7c23.2,3.8-29.2,25.4-15.7,1.8C55.7,84.3,66.4,85.1,69.6,85.7z"/>
		<path fill="#F07D65" d="M141.6,86.6c-9.7,2.8-29.2-10.3-5.4-11.1C139.3,75.4,155.3,82.7,141.6,86.6z"/>
		<path fill="#385052" d="M123,126.9C123,126.9,123,126.9,123,126.9c0.1,1-0.6,1.7-1.5,1.7c-2.7-0.2-3.1,0.3-4.1-0.9    c-0.9-1.1-0.3-2.8,1.2-3c0.5-0.1,1.1-0.1,1.6-0.1C121.7,124.4,122.9,125.5,123,126.9z"/>
		<path fill="#385052" d="M107.9,131.8c1.6,0.2,3,1,4.1,1.9c1.5,1.4,1,3.8-0.9,4.5c-0.6,0.2-1.2,0.3-2,0.4c-1.1,0.1-2.2-0.4-2.7-1.4    c-0.4-0.9-0.7-1.6-0.9-2.5C105.1,133.1,106.3,131.6,107.9,131.8z"/>
		<path fill="#385052" d="M94.4,130.3c-0.9,0.6-2,1.7-3.5-1.9c-0.5-1.2,0.3-2.6,1.6-2.7c1.5-0.1,1.8,0.9,2.4,1.9    c0.5,0.7,0.4,1.7-0.1,2.3l0,0C94.6,130,94.5,130.2,94.4,130.3z"/>
		<path fill="#385052" d="M80.7,124.4c-1.3,1.6-0.1,4-4.5,3c-0.4-0.1-0.7-0.4-0.7-0.8c-0.1-0.8,0-1.7-0.1-2.5c0-0.5,0.3-0.9,0.8-1    c1.2-0.2,2.4-0.1,3.6-0.3c0.5-0.1,1,0.3,1.1,0.8l0,0C81,124,80.9,124.2,80.7,124.4z"/>
		<path fill="#385052" d="M70.2,118.6c-1,0.5-2,0.9-3.9,0.9c-0.6-2.8,1.8-3.2,3.6-2.9C70.9,116.8,71.1,118.2,70.2,118.6z"/>
	</g>
</g>
</svg>