<?xml version="1.0" encoding="UTF-8"?>
<!-- Generator: Adobe Illustrator 17.1.0, SVG Export Plug-In . SVG Version: 6.00 Build 0)  -->
<!DOCTYPE svg PUBLIC "-//W3C//DTD SVG 1.1//EN" "http://www.w3.org/Graphics/SVG/1.1/DTD/svg11.dtd">
<svg version="1.1" id="Layer_1" xmlns="http://www.w3.org/2000/svg" xmlns:xlink="http://www.w3.org/1999/xlink" x="0px" y="0px" viewBox="0 0 200 205.6" enable-background="new 0 0 200 205.6" xml:space="preserve"><script xmlns=""/>
<path fill="#23252E" d="M99.6,162.3c18.4-1.1,50.8-3,70.4,0.1c13.2,2,10.3,9.4-5.1,14.1c-19.6,6-60.6,8.4-90,10.6  c-47.5,3.4-56.6-4.9-46.6-10.9C36,171.5,66.1,164.3,99.6,162.3z"/>
<g>
	<path fill="#23A38F" d="M40.5,181.1c18.6-2.3,38-7.3,57.5-10.9c2.9-0.5,5.8-1,8.7-1.5c17.7-2.8,35.4-3.8,52.1-0.1   c4.9-9.2,5.4-25.8,4.1-42.9c-0.3-4.3-0.7-8.6-1.2-12.9c-2.6-22.3-6.9-42.3-6.4-43.3c-16.8,2.6-33.4,2.5-50,2.3   c-5.7,0-11.4-0.1-17.1,0c-15.8,0.1-31.8,1-48.3,4.8c1.3,8.5,1.5,17,1.2,25.6c-0.2,5.3-0.6,10.7-1.1,16   C38.2,139.4,35.5,160.4,40.5,181.1z"/>
	<path fill="#FFAD29" d="M105.1,67.1c2.1,33.8,8.4,74.2,0.5,107c-2.8,0.3-4.6,0.1-7.7-0.4c0.8-18,0.3-35.8-1.3-53.7   c-1.6-17.6-10.4-40.5-7.9-56c5.3,0.8,17.3,0.9,16,0.9L105.1,67.1z"/>
	<path fill="#FFAD29" d="M40,118.4c18,1.1,38.3-0.3,56.3-0.8c4.3-0.1,8.5-0.1,12.5-0.1c4,0.1,7.8,0.2,11.3,0.6   c14,1.3,28.9,6.8,42.2,7.7c0.2,0,0.4,0,0.6,0c-0.3-4.3-0.7-8.6-1.2-12.9c-15.5-4.5-34.4-8.2-53.9-10.4c-4.8-0.5-9.7-1-14.5-1.3   c-18.1-1.2-36.2-1-52.2,1.1C40.9,107.7,40.5,113,40,118.4z"/>
	<g>
		<path fill="#FFAD29" d="M103.7,73.7c0.3,0.4,0.5,0.8,0.8,1.2l0.4,2.2c1.7,9.9,56.3-22.9,32.1-43.7    C117.4,16.5,92.2,56.2,103.7,73.7z M104.7,74.4c3.1-9.5,5.7-24.1,17.5-21.1c-1.6,9.2-7.4,16.7-15.5,21.7    C106,74.9,105.4,74.7,104.7,74.4z"/>
	</g>
	<path fill="#FFAD29" d="M98.4,70C91.1,60.3,59,35,80.9,22c26.7-15.9,16,35.3,17,45.9L98.4,70z"/>
	<g>
		<path fill="#FFAD29" d="M98.2,72.7c0.9-2.2-0.2-3.4-3.3-3.4c-10.7-10.6-54.2-42.2-59.6-7.4C29.4,99.1,84.5,80,98.2,72.7z     M90.2,67.9l0.4,2.2c-0.8,2.4-28,11-31.7-1.1C53,50,85.2,64,90.2,67.9z"/>
	</g>
</g>
</svg>