<?xml version="1.0" encoding="UTF-8"?>
<!-- Generator: Adobe Illustrator 17.1.0, SVG Export Plug-In . SVG Version: 6.00 Build 0)  -->
<!DOCTYPE svg PUBLIC "-//W3C//DTD SVG 1.1//EN" "http://www.w3.org/Graphics/SVG/1.1/DTD/svg11.dtd">
<svg version="1.1" id="Layer_1" xmlns="http://www.w3.org/2000/svg" xmlns:xlink="http://www.w3.org/1999/xlink" x="0px" y="0px" viewBox="0 0 128 197" enable-background="new 0 0 128 197" xml:space="preserve"><script xmlns=""/>
<path fill="#BFBA26" d="M60,47.8c-12.4,27.5-25.9,55.6-40.1,82c3.8-4,8.9-8,12.8-11.1c-5.8,7.8-12.1,14.3-14.9,23.3  c3.8-2.1,7.2-5,10.5-7.7c-1.6,5.8-5.9,12.5-9.2,17.3c15.8,7.2,29,13.4,46.1,17.8c14.6,3.7,37.5,9.6,52.1,6.9  c-11.4-14.6-18.5-27.2-24.1-45.2c4.7,1.7,8.3,6.4,11.6,10.1c-3.2-8.4-5.7-19.7-10.3-27.5c3.2,4.8,6.9,9.8,12.4,12  C96.4,100.5,87.7,57.6,60,47.8z"/>
<g>
	<path fill="#FF5330" d="M67.9,53.5c-1.2,0.3-2.5,1-3.5,1.4c-0.2,0.1-1.5,0.3-1.8,0.4c-0.5,0.1-0.7,1.1-1.3,1.3   c-0.8,0.3-1.2-1-2-0.9c-0.5,0-0.8,1-1.4,1c-1.3,0.1-2.6-0.5-3.8-0.6c0.8-1.5,1.6-3.2,2.4-4.7l0.9-1.8c0.1-0.2,0.2-0.3,0.3-0.5   l-0.1-0.1c1.4,0.3,4.2-1,5.5-1.7c0.2,0.4,0.5,0.7,0.8,1.1c0.5,0.7,1,1.3,1.6,2C66.2,51.5,67.1,52.5,67.9,53.5z"/>
	<path fill="#FF5330" d="M55.3,34.9c-5.3-2.5-1.5-9.9-1-12.1c0.9-4.4,1-9,1.7-13.4c1.3,5.7,4.6,11.2,6.5,16.7   c0.7,2.1,1.5,4.7,0.6,6.9C61.9,35.7,57,35.7,55.3,34.9z"/>
	<path fill="#81CDCB" d="M65.4,50.5c-1.6,0.4-3.4,0.9-5,1.1c-1.3,0.2-2.7-0.1-4-0.2l0.9-1.8c0.8-0.1,1.6-0.4,2.4-0.4   c1.2-0.1,2.1-0.3,3.2-0.6c0.3-0.1,0.5-0.1,0.8-0.2C64.3,49.1,64.8,49.8,65.4,50.5z"/>
	<g>
		<path fill="#FF5330" d="M52.2,46.8c2.7,3.4,9.4,3.4,12.9,1.3c3.5-2.1,5-7.4,2.5-10.8c-1.3-1.7-3.1-2.6-5.2-2.5    C49.8,35.4,48.7,42.3,52.2,46.8z"/>
		<g>
			<path fill="#FFFFFF" d="M66.7,35.4c-0.1-0.1-0.2-0.2-0.3-0.2c-0.1,0-0.1-0.1-0.2-0.1c-0.4-0.3-0.9-0.5-1.3-0.8     c-0.7,0.3-1.4,0.6-2.1,0.8c-2.6,0.8-8.3,2.8-11.9,2.9c-0.2,0.5-0.3,1.1-0.5,1.6c0,0.1,0,0.2-0.1,0.3c6.1,0.2,11.7-1.1,16.4-4.4     C66.7,35.5,66.7,35.4,66.7,35.4z"/>
			<path fill="#81CDCB" d="M68.1,37.3c0,0,0-0.1-0.1-0.1c-0.1-0.2-0.3-0.5-0.4-0.7c-1.3,0.7-2.6,1.4-4,2c-3.5,1.4-8.8,3.1-13.5,3.2     c0,0.7,0,1.4,0,2.1c1.7,0,3.4-0.4,4.6-0.6c4.4-0.8,8.3-2.5,12-4.9C67.2,38,67.6,37.7,68.1,37.3z"/>
			<path fill="#FFFFFF" d="M69.1,42.5C69.1,42.5,69.1,42.5,69.1,42.5c0-0.1,0-0.2,0-0.3c0-0.1,0-0.2,0-0.3c-1.3,0.6-2.5,1.1-3.7,1.5     c-3.9,1.5-8.5,2.7-12.8,3c-0.3,0-0.6,0-0.9,0c0,0,0,0,0,0c0.2,0.2,0.4,0.3,0.5,0.5c0.1,0,0.1,0.1,0.2,0.1c0,0,0.1,0.1,0.1,0.1     c0.4,0.3,0.9,0.5,1.3,0.8c0.1,0.1,0.2,0.1,0.3,0.1c0,0,0,0,0,0c0.2,0.1,0.4,0.2,0.7,0.2c0.1,0,0.2,0.1,0.3,0.1     c5.1-0.8,10.4-3.4,13.7-5.4C69,42.8,69.1,42.7,69.1,42.5z"/>
		</g>
	</g>
</g>
<g>
	<path fill="#FF5330" d="M81.6,86.6c-2.9,2-3.5,6-0.6,8c3.1,2.2,9.6,0,10.8-3.7c0.9-2.7-1.3-4.9-3.7-5.5   C84.1,84.5,83,85.7,81.6,86.6z"/>
	<path fill="#70CCC2" d="M86.7,87.1c-1.1-0.9-1.7,0-1.8,1.2c-0.8-0.8-2.2-1-2.7,0.2c-0.6,1.5,3.4,4.4,4.5,4.7   C86.8,92.2,87.6,87.9,86.7,87.1z"/>
</g>
<g>
	<path fill="#81CDCB" d="M64,107.7c1,4.1-1.1,6.2-4.1,7l0,0l-2.5,0.3c-5.1,0.1-10.6-2.9-7.2-7.1c0.6-0.7,1.6-1.6,2.8-2.4   c1.2-0.8,2.6-1.6,4-2C59.9,102.7,62.8,103.3,64,107.7z"/>
	<g>
		<path fill="#FFFF9D" d="M52.7,112.7c0,0,2.6,0,1.8-1.4C53.5,109.7,51.4,111.2,52.7,112.7z"/>
		<path fill="#FFFF9D" d="M59.1,109.5c0.6,1.3,4.5,1,3.7-1.8C62,105,57.9,107,59.1,109.5z"/>
		<path fill="#FFFF9D" d="M57.1,104.5c0,3.3-3.9,2.7-4.1,1c1.2-0.8,2.6-1.6,4-2C57.1,103.8,57.1,104.2,57.1,104.5z"/>
		<path fill="#FFFF9D" d="M60.1,114c0,0.3-0.1,0.5-0.3,0.7l0,0l-2.5,0.3c-0.4-0.3-0.7-0.8-0.5-1.4C56.8,113.6,60.3,112.2,60.1,114z"/>
	</g>
</g>
<g>
	<g>
		<path fill="#8B5E3C" d="M90.1,160.3l-0.2,0c-0.2-0.7-0.5-1.4-0.7-2c-0.3-0.8-0.7-1.5-0.8-2.4l0.2,0c0.1,0.8,0.5,1.6,0.8,2.4    C89.7,158.9,89.9,159.6,90.1,160.3z"/>
	</g>
	<path fill="#FFE680" d="M97.3,161.9C97.3,161.9,97.2,162,97.3,161.9c0,0.4-0.1,0.8-0.2,1.2c-1.2,4.2-4.5,4.8-7,3.9   c-1.1-0.4-2.1-1.2-2.8-2.1c-0.5-0.7-0.8-1.4-0.7-2.2c0-0.4,0.1-0.8,0.3-1.2c0.2-0.4,0.6-0.9,1.1-1.3c1.7-2.4,5.7-3,7.8-1.5   c0,0,0,0,0,0C96.8,159.3,97.4,160.4,97.3,161.9z"/>
	<path fill="#81CDCB" d="M95.7,158.7c-2.5,2.3-5.8,4.3-9.2,4c0-0.4,0.1-0.8,0.3-1.2C89.5,161.3,93.5,160.3,95.7,158.7z"/>
	<path fill="#81CDCB" d="M95.8,158.6c0,0-0.1,0-0.1,0.1C95.7,158.7,95.7,158.6,95.8,158.6C95.8,158.6,95.8,158.6,95.8,158.6z"/>
	<path fill="#81CDCB" d="M97.3,161.9c0.1-0.1,0.2-0.1,0.3-0.2C97.5,161.8,97.3,161.9,97.3,161.9c-2.2,2.1-4.4,4.3-7.3,5   c-1.1-0.4-2.1-1.2-2.8-2.1C90.1,165.6,94.2,163.9,97.3,161.9z"/>
</g>
<g>
	<g>
		<path fill="#FFC21F" d="M88.8,107.4c1.5,2.1,3,4.3,4.8,6.2c-5.5,0.2-13.4-0.4-18.7,1.7c1.3,2.2,2.4,4.8,3.7,6.8    C80.2,120.8,87.3,108.6,88.8,107.4z"/>
	</g>
	<g>
		<path fill="#FFC21F" d="M90.7,118.5c-1.2-2.6-3.9-3.6-6.1-5.2c-0.2,0.2-0.4,0.3-0.7,0.4c0,0-0.1,0-0.1,0c0.2,1.9,1.8,6.6,3.5,7.6    c-0.1-1.3-0.4-2.6-0.3-3.7c0.7,0.8,1.4,1.6,2.3,2c-0.2-1-0.8-2.1-1.4-3.1C88.9,117.1,89.8,118,90.7,118.5z"/>
	</g>
</g>
<g>
	<path fill="#FFEA70" d="M69.5,69.1c-0.7,3-2.8,5.7-5.7,6.4c-1.3,0.3-2.7,0.2-4.1-0.4c-0.3-0.1-0.6-0.3-0.9-0.5   c-2.5-1.8-3.5-5.8-1.4-9c0.3-0.4,0.6-0.8,1-1.2c0.9-0.9,2-1.4,3.2-1.8c1.3-0.3,2.6-0.4,3.9-0.1c1.5,0.3,2.8,1.1,3.6,2.5l0,0   C69.6,66,69.8,67.4,69.5,69.1z"/>
	<g>
		<path fill="#FF8559" d="M61.7,64.9c-0.8,3.1-3.2,2.3-4.4,0.7c0.3-0.4,0.6-0.8,1-1.2c0.9-0.9,2-1.4,3.2-1.8    C61.9,63.2,62,63.9,61.7,64.9z"/>
		<path fill="#FF8559" d="M62.5,67.6c-1.4,1.8,1.4,4.3,3.1,2.6C67.9,68,64.1,67.5,62.5,67.6z"/>
		<path fill="#FF8559" d="M69,65L69,65c-0.1,0.1-0.2,0.2-0.3,0.4c-2.1,1.9-3.8-0.8-3.2-2.8C67,62.9,68.3,63.7,69,65z"/>
		<path fill="#FF8559" d="M63.7,75c0,0.2,0.1,0.4,0.1,0.5c-1.3,0.3-2.7,0.2-4.1-0.4c-0.3-0.1-0.6-0.3-0.9-0.5    C59,71.9,63,72.4,63.7,75z"/>
	</g>
</g>
<g>
	<g>
		<path fill="#FFE680" d="M55.8,89.6c-0.1,0-0.1,0-0.1,0c-0.1-0.1-0.1-0.3,0-0.4l0.2,0.1c0,0.1,0,0.1,0,0.1c0.3-0.1,1.3-1.3,1.7-1.8    c0.6-0.9,0.9-2.1,0.9-3.3l0.2,0c0,1.3-0.3,2.4-0.9,3.4c-0.2,0.3-0.6,0.8-1,1.2C56.2,89.4,55.9,89.5,55.8,89.6z"/>
	</g>
	<path fill="#FF5330" d="M58.2,91c-0.2,1.4-0.6,2.6-1.2,3.5c-0.2,0.3-0.5,0.7-0.7,0.9c-0.7,0.8-1.6,1.2-2.4,1.3   c-0.4,0.1-0.9,0-1.3-0.1c-1.5-0.4-3-1.9-3.7-4.5c-0.3-1.2,0.4-2.2,1.6-3c0.1-0.1,0.3-0.2,0.4-0.3c0.7-0.4,1.4-0.7,2.2-0.8   c0.5-0.1,1-0.2,1.4-0.2C56.6,87.8,58.5,88.7,58.2,91z"/>
	<g>
		<path fill="#FFFF9D" d="M53.9,96.8c-0.4,0.1-0.9,0-1.3-0.1c-1.4-2.3-2.4-5.4-2.1-7.5c0.1-0.1,0.3-0.2,0.4-0.3    C51,91,52.6,94.3,53.9,96.8z"/>
		<path fill="#FFFF9D" d="M57,94.5c-0.2,0.3-0.5,0.7-0.7,0.9c-1.6-1.9-2.9-5-3.2-7.3c0.5-0.1,1-0.2,1.4-0.2    C54.8,89.8,56,92.5,57,94.5z"/>
	</g>
</g>
<g>
	<path fill="#70CCC2" d="M35.5,142c-7.9,12.3,4.2,23.1,12.1,10.5C53.2,143.6,39.2,136.4,35.5,142z"/>
	<path fill="#FF5330" d="M41.7,144c-3.9,1.7-2,5-2,5c-2.1-1.9-3.3-3.5-5.6-1.2c2,3.6,5,7.3,9,7.3C43.9,151.2,44.4,147.2,41.7,144z"/>
</g>
<g>
	<path fill="#FFFFFF" d="M95.1,130.6c-2.2,1.2-4.6,2.1-8,2.4c-0.8,0.1-1.8,0.1-2.8,0.1c0,0-0.1,0-0.1,0c0,0-0.1,0-0.1,0   c-1.7-0.1-3.5-0.2-5.5-0.5c-2.1-0.3-4.4-0.8-6.7-1.3c0,0-0.1,0-0.1,0c-0.1,0-0.2,0-0.2-0.1c-2.9-0.7-6-1.6-9-2.6   c-1.4-0.5-2.8-1-4.2-1.5c-3-1.1-6-2.4-8.7-3.7c-0.1,0-0.2-0.1-0.3-0.1c0,0,0,0-0.1,0c-1.2-0.6-2.4-1.2-3.5-1.8c0,0,0,0-0.1,0   c-1.1-0.6-2.2-1.3-3.2-1.9c-4-2.6-7.9-5.2-11.5-7.9c0,0.1-0.1,0.1-0.1,0.2c3.6,2.7,7.5,5.4,11.5,7.9c0.9,0.6,2,1.2,3.1,1.8   c0,0,0,0,0.1,0c1.1,0.6,2.3,1.2,3.5,1.8c0,0,0,0,0.1,0c0.1,0.1,0.3,0.1,0.4,0.2c2.7,1.3,5.6,2.5,8.7,3.7c1.4,0.5,2.8,1,4.3,1.5   c0,0,0.1,0,0.1,0c3.1,1,6,1.9,8.9,2.5c0,0,0.1,0,0.1,0c0,0,0.1,0,0.1,0c2.4,0.6,4.7,1,6.9,1.4c2,0.3,3.8,0.5,5.5,0.5   c0.1,0,0.1,0,0.2,0c0,0,0,0,0,0c1.3,0,2.5,0,3.5-0.1c3.1-0.3,5.4-1.2,7.5-2.4L95.1,130.6z"/>
	<g>
		<g>
			<polygon fill="#FFA33F" points="54.8,139.6 51.7,134.8 46.3,136 50.6,124 59,127.6    "/>
		</g>
		<g>
			<polygon fill="#FFEA70" points="70.4,143.7 66.9,139.3 61.5,141.9 63.1,129.1 72,130.9    "/>
		</g>
		<g>
			<polygon fill="#FF5330" points="86.2,146.1 82.3,142 77.3,144.3 79,131.4 87.9,133.2    "/>
		</g>
	</g>
</g>
<path fill="#733F2C" d="M51.1,164.9c-1.6-0.2-3.1-0.8-4.6-1.5c-0.8,4.5-1.5,8.8-2.3,12c-0.3,1.2-0.6,2.4-0.9,3.6  c-3-5.9-4.9-13.5-5.3-19.7c-0.5,7.9,0.4,19.4,3.9,25l0,0c-0.6,2.3-1.3,4.6-1.9,6.9l5.2-0.6C47.5,181.9,49.6,173.4,51.1,164.9z"/>
</svg>