<?xml version="1.0" encoding="UTF-8"?>
<!-- Generator: Adobe Illustrator 17.1.0, SVG Export Plug-In . SVG Version: 6.00 Build 0)  -->
<!DOCTYPE svg PUBLIC "-//W3C//DTD SVG 1.1//EN" "http://www.w3.org/Graphics/SVG/1.1/DTD/svg11.dtd">
<svg version="1.1" id="Layer_1" xmlns="http://www.w3.org/2000/svg" xmlns:xlink="http://www.w3.org/1999/xlink" x="0px" y="0px" viewBox="0 0 200 284" enable-background="new 0 0 200 284" xml:space="preserve"><script xmlns=""/>
<g>
	<g>
		<rect x="44.2" y="14.5" fill="#EFF1C2" width="25.5" height="25.5"/>
		<rect x="72.9" y="14.5" fill="#EFF1C2" width="25.5" height="25.5"/>
		<rect x="101.6" y="14.5" fill="#EFF1C2" width="25.5" height="25.5"/>
		<rect x="72.9" y="71.9" fill="#F0563D" width="25.5" height="25.5"/>
		<rect x="44.2" y="71.9" fill="#F0563D" width="25.5" height="25.5"/>
		<rect x="44.2" y="43.2" fill="#EFF1C2" width="25.5" height="25.5"/>
		<rect x="72.9" y="43.2" fill="#EFF1C2" width="25.5" height="25.5"/>
		<rect x="101.6" y="43.2" fill="#EFF1C2" width="25.5" height="25.5"/>
		<rect x="101.6" y="71.9" fill="#F0563D" width="25.5" height="25.5"/>
		<rect x="101.6" y="100.6" fill="#F0563D" width="25.5" height="25.5"/>
		<rect x="72.9" y="100.6" fill="#F0563D" width="25.5" height="25.5"/>
		<rect x="44.2" y="100.6" fill="#F0563D" width="25.5" height="25.5"/>
		<rect x="15.5" y="100.6" fill="#F0563D" width="25.5" height="25.5"/>
		<rect x="15.5" y="71.9" fill="#F0563D" width="25.5" height="25.5"/>
		<rect x="15.5" y="43.2" fill="#EFF1C2" width="25.5" height="25.5"/>
		<rect x="15.5" y="14.5" fill="#EFF1C2" width="25.5" height="25.5"/>
	</g>
	<rect x="15.5" y="129.2" fill="#F0563D" width="25.5" height="25.5"/>
	<rect x="44.2" y="129.2" fill="#F0563D" width="25.5" height="25.5"/>
	<rect x="72.9" y="129.2" fill="#F0563D" width="25.5" height="25.5"/>
	<rect x="101.6" y="129.2" fill="#F0563D" width="25.5" height="25.5"/>
	<rect x="44.2" y="157.9" fill="#F0563D" width="25.5" height="25.5"/>
	<rect x="44.2" y="186.6" fill="#F0563D" width="25.5" height="25.5"/>
	<rect x="101.6" y="157.9" fill="#F0563D" width="25.5" height="25.5"/>
	<rect x="101.6" y="186.6" fill="#F0563D" width="25.5" height="25.5"/>
	<rect x="101.6" y="215.3" fill="#F0563D" width="25.5" height="25.5"/>
	<rect x="159" y="186.6" fill="#EFF1C2" width="25.5" height="25.5"/>
	<rect x="159" y="215.3" fill="#EFF1C2" width="25.5" height="25.5"/>
	<rect x="159" y="244" fill="#EFF1C2" width="25.5" height="25.5"/>
	<rect x="15.5" y="244" fill="#EFF1C2" width="25.5" height="25.5"/>
	<rect x="44.2" y="244" fill="#EFF1C2" width="25.5" height="25.5"/>
	<rect x="72.9" y="244" fill="#F0563D" width="25.5" height="25.5"/>
	<rect x="101.6" y="244" fill="#F0563D" width="25.5" height="25.5"/>
	<rect x="130.3" y="244" fill="#F0563D" width="25.5" height="25.5"/>
	<rect x="130.3" y="215.3" fill="#F0563D" width="25.5" height="25.5"/>
	<rect x="130.3" y="186.6" fill="#F0563D" width="25.5" height="25.5"/>
	<rect x="72.9" y="157.9" fill="#F0563D" width="25.5" height="25.5"/>
	<rect x="72.9" y="186.6" fill="#F0563D" width="25.5" height="25.5"/>
	<rect x="72.9" y="215.3" fill="#F0563D" width="25.5" height="25.5"/>
	<rect x="44.2" y="215.3" fill="#EFF1C2" width="25.5" height="25.5"/>
	<rect x="15.5" y="215.3" fill="#EFF1C2" width="25.5" height="25.5"/>
	<rect x="15.5" y="186.6" fill="#F0563D" width="25.5" height="25.5"/>
	<rect x="15.5" y="157.9" fill="#F0563D" width="25.5" height="25.5"/>
</g>
</svg>