<?xml version="1.0" encoding="UTF-8"?>
<!-- Generator: Adobe Illustrator 17.1.0, SVG Export Plug-In . SVG Version: 6.00 Build 0)  -->
<!DOCTYPE svg PUBLIC "-//W3C//DTD SVG 1.1//EN" "http://www.w3.org/Graphics/SVG/1.1/DTD/svg11.dtd">
<svg version="1.1" id="Layer_1" xmlns="http://www.w3.org/2000/svg" xmlns:xlink="http://www.w3.org/1999/xlink" x="0px" y="0px" viewBox="0 0 200 151" enable-background="new 0 0 200 151" xml:space="preserve"><script xmlns=""/>
<path fill="#EEC2A1" d="M87.4,61.6c19,1.3,40-7.2,57.3,3.8c11.9,7.5,22,26.4,15.9,40.7c-5.9,13.6-27.9,23.9-41.9,27.1  c-14.5,3.3-33.5,3.6-48,0.1c-19.8-4.8-32.3-31-26.3-49.6c9.9-30.6,43.9-22.4,69-27.3L87.4,61.6z"/>
<path fill="#2E313D" d="M59.6,62.1c-3.7,2.8-12.4,13.1-12,18.1c3.9-0.5,15.8-6.6,19.8-7.7c3.8-1,6.8,2.5,10.2-0.4  c2.7,4.7,5.1,1.3,8.8,1.8c3.1,0.4,5.1,3.4,9,1c10.8,7.9,38.4,4.4,51.2,3.5c0.4,1,1.3,2.1,1.7,2.9c2.3-2.7,5-3.2,6.8,0.3  c0.6-0.4,0.5-1.6,0.6-2.3c1,0.8,3.1,1.4,4.2,2c0.8-8.1,1.7-16.1-4.5-22c-8.3-8-22.1-8.4-32.9-7.9C102.8,52.3,75,55,58.1,66.5  L59.6,62.1z"/>
<path fill="#23A38F" d="M69.4,139.2c-12.6-9.3-20-26.6-19-43.8c2.2-38.6,50.6-40.8,78.2-37.4c7.5,0.9,17.7,1.6,21.8,8.8  c3.7,6.5,1.5,15.7,3.9,22.8c2.6,7.5-3.9,44.4,27.2,31.1c-9.5-10-13.5-20.2-16.9-34.4c-0.6-2.5-0.9-5.2-1.1-8l0,0  c-0.1-1.4-0.2-2.9-0.2-4.3c0-0.2,0-0.4,0-0.5c-0.1-1.4-0.1-2.9-0.2-4.3c0-0.2,0-0.4,0-0.5c-0.1-1.5-0.2-2.9-0.3-4.3  c0-0.2,0-0.4-0.1-0.5c-0.2-1.5-0.4-2.9-0.7-4.3c-0.3-1.3-0.6-2.6-1-3.8l0,0c-0.1-0.3-0.2-0.7-0.4-1c-0.9-2.2-2-4.2-3.6-6  c-2.9-3.4-6.8-8.8-11.3-14.5l0,0c-0.1-0.1-0.1-0.1-0.2-0.2l0,0c-0.1-0.2-0.3-0.3-0.4-0.5c-1.1-1.4-2.1-2.7-3.2-4.1  c-0.1-0.2-0.3-0.3-0.4-0.5c-0.2-0.3-0.4-0.5-0.7-0.8c-0.2-0.2-0.4-0.5-0.6-0.7l0,0c-0.7-0.9-1.4-1.7-2.1-2.5  c-1.1-1.3-2.2-2.5-3.3-3.7c-0.3-0.3-0.6-0.6-0.9-0.9c-5.9-6.2-12-10.7-17.3-10.6C81.2,10.2,61.7,22,50.3,34l0,0  c-0.8,0.8-1.5,1.6-2.2,2.4c-0.2,0.2-0.3,0.4-0.5,0.6c-0.5,0.5-0.9,1.1-1.3,1.6c-0.2,0.2-0.3,0.4-0.5,0.6l0,0  c-0.6,0.8-1.2,1.6-1.8,2.4c-0.1,0.2-0.3,0.4-0.4,0.6l-1.7,2.5c-0.2,0.3-0.3,0.5-0.5,0.8c-0.3,0.5-0.6,0.9-0.8,1.4  c-0.1,0.2-0.2,0.4-0.3,0.6c-1,1.6-1.8,3.2-2.6,4.6c-1,1.8-1.8,3.5-2.6,4.7c-1.3,2.2-2.3,5.1-3.1,8.3c-0.2,0.7-0.4,1.5-0.5,2.2l0,0  c-0.2,0.9-0.4,1.8-0.6,2.8c-0.3,1.5-0.6,2.9-0.8,4.4c0,0.2-0.7,5-0.7,5c-0.7,4.9-1.2,9.5-1.7,13c-0.4,2.6-0.2,5.7,0.4,9.1  c0.2,1.1,0.4,2.2,0.7,3.3c0,0.2,0.1,0.4,0.1,0.5c0.4,1.4,0.8,2.8,1.3,4.2c0.1,0.2,0.1,0.4,0.2,0.5c0.5,1.4,1,2.8,1.7,4.2  c0.1,0.2,0.2,0.3,0.2,0.5c0.5,1.1,1,2.2,1.6,3.3c0.2,0.5,0.5,1,0.7,1.4c0.8,1.4,1.6,2.8,2.4,4.1l0,0C44.7,136,56.7,145.2,69.4,139.2  z"/>
<g>
	<g>
		<g>
			<g>
				<path fill="#2E313D" d="M130.4,91.5l0.5-0.9c-0.3-0.2-0.6-0.3-0.9-0.5c-5.8-3-14.5-7.5-19.9-1.4l0.8,0.7      c4.9-5.5,12.9-1.4,18.7,1.7C129.7,91.1,130.1,91.3,130.4,91.5z"/>
			</g>
		</g>
		<g>
			<g>
				<path fill="#2E313D" d="M85.4,90.4c-2-3.1-7.7-5.6-12.2-5.4c-2.8,0.1-4.9,1.3-6.1,3.3l0.9,0.5c1.2-2.2,3.5-2.7,5.2-2.8      c4.5-0.2,9.7,2.5,11.3,5L85.4,90.4z"/>
			</g>
		</g>
	</g>
	<path fill="#BF5644" d="M107.8,106.5c-4.1-3.4-14.6-4.1-19.5-2.2c8,6,10,5.7,19,2.8L107.8,106.5z"/>
	<path fill="#F07D65" d="M71.8,107.7c-11.7,4.9-16.5-10.2-6.1-8.6C69,99.7,82.5,103.2,71.8,107.7z"/>
	<path fill="#F07D65" d="M131.2,106.1c-11.7,4.9-16.5-10.2-6.1-8.6C128.4,98.1,141.9,101.6,131.2,106.1z"/>
	<path fill="#F07D65" d="M99.1,92.1c1.2,1.6,4.1,3.5,3.4,5.6c-1,2.9-6.8,1.4-8.8,0.7C94.2,95.8,98.4,87.2,99.1,92.1z"/>
</g>
<g>
	<g>
		<g>
			<g>
				<path fill="#F0563D" d="M140.9,28.9l0.6,0c-0.2-0.3-0.4-0.5-0.7-0.8L140.9,28.9z"/>
			</g>
			<g>
				
					<rect x="131" y="25.2" transform="matrix(-0.9965 8.345153e-02 -8.345153e-02 -0.9965 268.2173 43.4699)" fill="#F0563D" width="4.3" height="4.3"/>
			</g>
			<g>
				
					<rect x="126.2" y="25.6" transform="matrix(-0.9965 8.355987e-02 -8.355987e-02 -0.9965 258.5408 44.6765)" fill="#F0563D" width="4.3" height="4.3"/>
			</g>
			<g>
				
					<rect x="136.3" y="29.6" transform="matrix(-0.9965 8.356011e-02 -8.356011e-02 -0.9965 279.118 51.9124)" fill="#F0563D" width="4.3" height="4.3"/>
			</g>
			<g>
				
					<rect x="126.6" y="30.4" transform="matrix(-0.9965 8.345367e-02 -8.345367e-02 -0.9965 259.7599 54.3683)" fill="#F0563D" width="4.3" height="4.3"/>
			</g>
			<g>
				<polygon fill="#F0563D" points="145.6,33.9 145.6,33.9 141.4,34.3 141.8,38.6 146.1,38.2 145.7,34.1 145.7,34.1     "/>
			</g>
			<g>
				
					<rect x="131.8" y="34.9" transform="matrix(-0.9965 8.345391e-02 -8.345391e-02 -0.9965 270.6591 62.8258)" fill="#F0563D" width="4.3" height="4.3"/>
			</g>
			<g>
				
					<rect x="137.1" y="39.4" transform="matrix(-0.9965 8.349714e-02 -8.349714e-02 -0.9965 281.5588 71.2771)" fill="#F0563D" width="4.3" height="4.3"/>
			</g>
			<g>
				<path fill="#F0563D" d="M130.8,24.8l4.3-0.4l-0.3-3.4c-0.3-0.3-0.6-0.6-0.9-0.9l-3.6,0.3L130.8,24.8z"/>
			</g>
		</g>
	</g>
	<g>
		<g>
			<g>
				
					<rect x="97.1" y="42.4" transform="matrix(0.9965 -8.366448e-02 8.366448e-02 0.9965 -3.3772 8.4646)" fill="#F0563D" width="4.3" height="4.3"/>
			</g>
			<g>
				
					<rect x="102" y="42" transform="matrix(0.9965 -8.349898e-02 8.349898e-02 0.9965 -3.3202 8.8523)" fill="#F0563D" width="4.3" height="4.3"/>
			</g>
			<g>
				
					<rect x="111.7" y="41.1" transform="matrix(0.9965 -8.362808e-02 8.362808e-02 0.9965 -3.2224 9.677)" fill="#F0563D" width="4.3" height="4.3"/>
			</g>
			<g>
				
					<rect x="116.6" y="40.7" transform="matrix(0.9965 -8.366087e-02 8.366087e-02 0.9965 -3.1723 10.0864)" fill="#F0563D" width="4.3" height="4.3"/>
			</g>
			<g>
				
					<rect x="96.7" y="37.5" transform="matrix(0.9965 -8.361022e-02 8.361022e-02 0.9965 -2.97 8.4079)" fill="#F0563D" width="4.3" height="4.3"/>
			</g>
			<g>
				
					<rect x="106.5" y="36.7" transform="matrix(0.9965 -8.360784e-02 8.360784e-02 0.9965 -2.8676 9.2182)" fill="#F0563D" width="4.3" height="4.3"/>
			</g>
			<g>
				
					<rect x="116.2" y="35.9" transform="matrix(0.9965 -8.371969e-02 8.371969e-02 0.9965 -2.7684 10.0424)" fill="#F0563D" width="4.3" height="4.3"/>
			</g>
			<g>
				
					<rect x="101.2" y="32.2" transform="matrix(0.9965 -8.356051e-02 8.356051e-02 0.9965 -2.5123 8.7567)" fill="#F0563D" width="4.3" height="4.3"/>
			</g>
			<g>
				
					<rect x="110.9" y="31.4" transform="matrix(0.9965 -8.371741e-02 8.371741e-02 0.9965 -2.4138 9.585)" fill="#F0563D" width="4.3" height="4.3"/>
			</g>
			<g>
				
					<rect x="105.6" y="26.9" transform="matrix(0.9965 -8.356233e-02 8.356233e-02 0.9965 -2.0561 9.1109)" fill="#F0563D" width="4.3" height="4.3"/>
			</g>
			<g>
				
					<rect x="102.4" y="46.8" transform="matrix(0.9965 -8.366640e-02 8.366640e-02 0.9965 -3.7317 8.9216)" fill="#F0563D" width="4.3" height="4.3"/>
			</g>
			<g>
				
					<rect x="112.1" y="46" transform="matrix(0.9965 -8.378078e-02 8.378078e-02 0.9965 -3.6337 9.7462)" fill="#F0563D" width="4.3" height="4.3"/>
			</g>
		</g>
	</g>
	<g>
		<g>
			<g>
				
					<rect x="82.4" y="37.4" transform="matrix(-0.9965 8.367225e-02 -8.367225e-02 -0.9965 172.2007 71.8963)" fill="#F0563D" width="4.3" height="4.3"/>
			</g>
			<g>
				
					<rect x="77.6" y="37.8" transform="matrix(-0.9965 8.373830e-02 -8.373830e-02 -0.9965 162.5256 73.113)" fill="#F0563D" width="4.3" height="4.3"/>
			</g>
			<g>
				
					<rect x="67.8" y="38.6" transform="matrix(-0.9965 8.367486e-02 -8.367486e-02 -0.9965 143.1667 75.5612)" fill="#F0563D" width="4.3" height="4.3"/>
			</g>
			<g>
				
					<rect x="63" y="39" transform="matrix(-0.9965 8.355559e-02 -8.355559e-02 -0.9965 133.4845 76.7912)" fill="#F0563D" width="4.3" height="4.3"/>
			</g>
			<g>
				
					<rect x="82.8" y="42.3" transform="matrix(-0.9965 8.366869e-02 -8.366869e-02 -0.9965 173.4218 81.5745)" fill="#F0563D" width="4.3" height="4.3"/>
			</g>
			<g>
				
					<rect x="73.1" y="43.1" transform="matrix(-0.9965 8.355773e-02 -8.355773e-02 -0.9965 154.0621 84.0272)" fill="#F0563D" width="4.3" height="4.3"/>
			</g>
			<g>
				
					<rect x="63.4" y="43.9" transform="matrix(-0.9965 8.372523e-02 -8.372523e-02 -0.9965 134.713 86.4575)" fill="#F0563D" width="4.3" height="4.3"/>
			</g>
			<g>
				
					<rect x="78.4" y="47.5" transform="matrix(-0.9965 8.366773e-02 -8.366773e-02 -0.9965 164.9665 92.474)" fill="#F0563D" width="4.3" height="4.3"/>
			</g>
			<g>
				
					<rect x="68.6" y="48.3" transform="matrix(-0.9965 8.356011e-02 -8.356011e-02 -0.9965 145.6057 94.9263)" fill="#F0563D" width="4.3" height="4.3"/>
			</g>
			<g>
				
					<rect x="73.9" y="52.8" transform="matrix(-0.9965 8.360881e-02 -8.360881e-02 -0.9965 156.5072 103.3788)" fill="#F0563D" width="4.3" height="4.3"/>
			</g>
			<g>
				
					<rect x="77.2" y="32.9" transform="matrix(-0.9965 8.356699e-02 -8.356699e-02 -0.9965 161.2982 63.4487)" fill="#F0563D" width="4.3" height="4.3"/>
			</g>
			<g>
				
					<rect x="67.4" y="33.7" transform="matrix(-0.9965 8.351497e-02 -8.351497e-02 -0.9965 141.9409 65.8945)" fill="#F0563D" width="4.3" height="4.3"/>
			</g>
		</g>
	</g>
	<g>
		<g>
			<g>
				<polygon fill="#F0563D" points="41.4,45.5 41.5,46.7 40.6,46.8     "/>
			</g>
			<g>
				<polygon fill="#F0563D" points="41.9,44.7 42.1,46.7 46.4,46.3 46,42 43.6,42.2     "/>
			</g>
			<g>
				
					<rect x="51.6" y="41.4" transform="matrix(0.9965 -8.345470e-02 8.345470e-02 0.9965 -3.4455 4.6394)" fill="#F0563D" width="4.3" height="4.3"/>
			</g>
			<g>
				<path fill="#F0563D" d="M44,41.6l2-0.2l-0.2-2.3C45.1,40,44.5,40.8,44,41.6z"/>
			</g>
			<g>
				<path fill="#F0563D" d="M46.5,41.4l4.3-0.4l-0.4-4.3L47.6,37c-0.5,0.5-0.9,1.1-1.3,1.6L46.5,41.4z"/>
			</g>
			<g>
				
					<rect x="51.2" y="36.5" transform="matrix(0.9965 -8.355824e-02 8.355824e-02 0.9965 -3.0445 4.5942)" fill="#F0563D" width="4.3" height="4.3"/>
			</g>
			<g>
				<path fill="#F0563D" d="M48.1,36.4l2.3-0.2L50.3,34C49.5,34.8,48.8,35.6,48.1,36.4z"/>
			</g>
			<g>
				<path fill="#F0563D" d="M37.7,52l4.3-0.4l-0.4-4.3l-1.3,0.1C39.3,49,38.4,50.6,37.7,52z"/>
			</g>
			<g>
				
					<rect x="47.1" y="46.6" transform="matrix(0.9965 -8.356225e-02 8.356225e-02 0.9965 -3.9059 4.2916)" fill="#F0563D" width="4.3" height="4.3"/>
			</g>
		</g>
	</g>
	<g>
		<g>
			<g>
				
					<rect x="46.4" y="68.5" transform="matrix(-0.9965 8.361879e-02 -8.361879e-02 -0.9965 102.8973 137.0741)" fill="#F0563D" width="4.3" height="4.3"/>
			</g>
			<g>
				
					<rect x="41.5" y="68.9" transform="matrix(-0.9965 8.339284e-02 -8.339284e-02 -0.9965 93.2042 138.3057)" fill="#F0563D" width="4.3" height="4.3"/>
			</g>
			<g>
				
					<rect x="31.8" y="69.7" transform="matrix(-0.9965 8.372190e-02 -8.372190e-02 -0.9965 73.8701 140.7338)" fill="#F0563D" width="4.3" height="4.3"/>
			</g>
			<g>
				<path fill="#F0563D" d="M30,74.4l1.4-0.1L31.1,70l-0.3,0C30.5,71.5,30.3,72.9,30,74.4z"/>
			</g>
			<g>
				
					<rect x="46.8" y="73.4" transform="matrix(-0.9965 8.350118e-02 -8.350118e-02 -0.9965 104.1104 146.7568)" fill="#F0563D" width="4.3" height="4.3"/>
			</g>
			<g>
				
					<rect x="37.1" y="74.2" transform="matrix(-0.9965 8.350807e-02 -8.350807e-02 -0.9965 84.7547 149.1998)" fill="#F0563D" width="4.3" height="4.3"/>
			</g>
			<g>
				
					<rect x="42.4" y="78.7" transform="matrix(-0.9965 8.356913e-02 -8.356913e-02 -0.9965 95.659 157.6531)" fill="#F0563D" width="4.3" height="4.3"/>
			</g>
			<g>
				
					<rect x="32.6" y="79.5" transform="matrix(-0.9965 8.366084e-02 -8.366084e-02 -0.9965 76.3096 160.0923)" fill="#F0563D" width="4.3" height="4.3"/>
			</g>
			<g>
				
					<rect x="37.9" y="83.9" transform="matrix(-0.9965 8.376015e-02 -8.376015e-02 -0.9965 87.2178 168.5442)" fill="#F0563D" width="4.3" height="4.3"/>
			</g>
			<g>
				
					<rect x="41.1" y="64.1" transform="matrix(-0.9965 8.360738e-02 -8.360738e-02 -0.9965 91.9971 128.6172)" fill="#F0563D" width="4.3" height="4.3"/>
			</g>
			<g>
				
					<rect x="31.4" y="64.9" transform="matrix(-0.9965 8.351117e-02 -8.351117e-02 -0.9965 72.6349 131.0643)" fill="#F0563D" width="4.3" height="4.3"/>
			</g>
		</g>
	</g>
	<g>
		<g>
			<g>
				
					<rect x="43" y="103.9" transform="matrix(-0.9965 8.356913e-02 -8.356913e-02 -0.9965 99.1437 207.9698)" fill="#F0563D" width="4.3" height="4.3"/>
			</g>
			<g>
				
					<rect x="38.2" y="104.3" transform="matrix(-0.9965 8.355132e-02 -8.355132e-02 -0.9965 89.4634 209.192)" fill="#F0563D" width="4.3" height="4.3"/>
			</g>
			<g>
				
					<rect x="28.5" y="105.1" transform="matrix(-0.9965 8.355773e-02 -8.355773e-02 -0.9965 70.1085 211.6341)" fill="#F0563D" width="4.3" height="4.3"/>
			</g>
			<g>
				
					<rect x="43.5" y="108.8" transform="matrix(-0.9965 8.360881e-02 -8.360881e-02 -0.9965 100.3694 217.6448)" fill="#F0563D" width="4.3" height="4.3"/>
			</g>
			<g>
				
					<rect x="33.7" y="109.6" transform="matrix(-0.9965 8.361071e-02 -8.361071e-02 -0.9965 81.0133 220.0883)" fill="#F0563D" width="4.3" height="4.3"/>
			</g>
			<g>
				<path fill="#F0563D" d="M31.9,114.3l1.5-0.1l-0.4-4.3l-2.7,0.2C30.8,111.4,31.3,112.8,31.9,114.3z"/>
			</g>
			<g>
				
					<rect x="39" y="114" transform="matrix(-0.9965 8.356011e-02 -8.356011e-02 -0.9965 91.9078 228.5468)" fill="#F0563D" width="4.3" height="4.3"/>
			</g>
			<g>
				<path fill="#F0563D" d="M33.7,118.1l-0.3-3.4l-1.3,0.1C32.6,115.9,33.2,117,33.7,118.1z"/>
			</g>
			<g>
				<path fill="#F0563D" d="M36.9,123.6L36.9,123.6l2.2-0.2l-0.4-4.3l-4.2,0.4C35.2,120.9,36,122.3,36.9,123.6z"/>
			</g>
			<g>
				
					<rect x="37.8" y="99.4" transform="matrix(-0.9965 8.370836e-02 -8.370836e-02 -0.9965 88.2573 199.5063)" fill="#F0563D" width="4.3" height="4.3"/>
			</g>
			<g>
				
					<rect x="28" y="100.3" transform="matrix(-0.9965 8.345010e-02 -8.345010e-02 -0.9965 68.8761 201.9602)" fill="#F0563D" width="4.3" height="4.3"/>
			</g>
		</g>
	</g>
	<g>
		<g>
			<g>
				<path fill="#F0563D" d="M162.2,63.8l0.5,0c-0.2-1.5-0.4-2.9-0.7-4.3l-0.2,0L162.2,63.8z"/>
			</g>
			<g>
				
					<rect x="152.3" y="60.1" transform="matrix(-0.9965 8.350166e-02 -8.350166e-02 -0.9965 313.5593 111.3862)" fill="#F0563D" width="4.3" height="4.3"/>
			</g>
			<g>
				<path fill="#F0563D" d="M162.6,68.6l0.5,0c-0.1-1.5-0.2-2.9-0.3-4.3l-0.5,0L162.6,68.6z"/>
			</g>
			<g>
				
					<rect x="157.6" y="64.5" transform="matrix(-0.9965 8.366536e-02 -8.366536e-02 -0.9965 324.4676 119.8165)" fill="#F0563D" width="4.3" height="4.3"/>
			</g>
			<g>
				
					<rect x="152.7" y="64.9" transform="matrix(-0.9965 8.355559e-02 -8.355559e-02 -0.9965 314.7837 121.0557)" fill="#F0563D" width="4.3" height="4.3"/>
			</g>
			<g>
				<path fill="#F0563D" d="M163,73.5l0.2,0c-0.1-1.4-0.1-2.9-0.2-4.3l-0.4,0L163,73.5z"/>
			</g>
			<g>
				
					<rect x="158" y="69.4" transform="matrix(-0.9965 8.362212e-02 -8.362212e-02 -0.9965 325.6873 129.5015)" fill="#F0563D" width="4.3" height="4.3"/>
			</g>
			<g>
				<path fill="#F0563D" d="M163.4,78.4L163.4,78.4c0-1.4-0.1-2.9-0.1-4.3l-0.2,0L163.4,78.4z"/>
			</g>
			<g>
				
					<rect x="156.7" y="54.8" transform="matrix(-0.9965 8.350807e-02 -8.350807e-02 -0.9965 322.0172 100.4864)" fill="#F0563D" width="4.3" height="4.3"/>
			</g>
		</g>
	</g>
</g>
</svg>