<?xml version="1.0" encoding="UTF-8"?>
<!-- Generator: Adobe Illustrator 17.1.0, SVG Export Plug-In . SVG Version: 6.00 Build 0)  -->
<!DOCTYPE svg PUBLIC "-//W3C//DTD SVG 1.1//EN" "http://www.w3.org/Graphics/SVG/1.1/DTD/svg11.dtd">
<svg version="1.1" id="Layer_1" xmlns="http://www.w3.org/2000/svg" xmlns:xlink="http://www.w3.org/1999/xlink" x="0px" y="0px" viewBox="0 0 200 115.6" enable-background="new 0 0 200 115.6" xml:space="preserve"><script xmlns=""/>
<g>
	<path fill="#23A38F" d="M195.9,32.3c-2.6,2-5.6,3.5-8.7,4.5c-0.3,0.1-0.5,0.1-0.8,0.2c-2,1-3.9,1.4-6.1,0.1c-1.7-0.9-2.7-2.5-3-4.3   c-0.1,0.1-0.2,0.1-0.2,0.2c0.2,1.2,0,2.5-0.5,3.7c0.6-1.7-0.2,0.7-0.4,1.1c-0.4,1.1-0.8,2.2-1.2,3.3c-0.7,1.7-1.6,3.4-2.8,4.7   c-2.1,2.3-5.7,2.4-8,0.4c-1.9-1.7-2.3-4.5-1.2-6.7c0-0.2,0-0.3-0.1-0.5c-0.1,0.2-0.2,0.3-0.4,0.5c0,0.6,0,1.2-0.2,1.7   c-1.6,4.6-3.9,9.3-7.6,12.6c-2.3,2.1-5.5,2.6-8,0.4c-2.1-1.9-2.6-5.9-0.4-8c0.1-0.1,0.2-0.2,0.3-0.3c-3.3,3.1-6.9,2.2-8.6-2.2   c-0.8,1.3-1.6,3.1-2.4,4.8c0.2,0.8,0.2,1.7,0.1,2.6c-0.2,1.6-0.9,3.3-1.5,4.8c-0.3,0.6-0.5,1.2-0.8,1.9c-0.1,0.2-0.1,0.3-0.2,0.5   c-1,2.7-3.6,4.5-6.6,3.8c-2.4-0.6-4.4-2.9-4.4-5.4c-5.4,7.4-8.7,17.6-7.8,26.8c1.2,11.4,9.2,12.7,18.9,12.5   c11.7,2.6,34.5,0.8,40.9-10.5c-0.1,0-0.2,0-0.3,0c-0.1,0-0.1,0-0.2,0c-2.5-0.3-4.3-3-4.4-5.3c-0.1-2,1-3.8,2.6-4.9   c0.6-0.4,1.2-0.6,1.9-0.8c0.1,0,0.1,0,0.2,0c1.3-0.7,2.7-1.3,4.1-1.7c2.5-0.7,5.2-1.1,7.8-1.5c1-0.3,1.8-0.5,2.4-0.4   c0-0.1,0-0.3,0-0.4c-1.1-0.3-2.2-0.7-3.3-1.1c-1.6-0.3-3.2-0.8-4.8-1.6c-1.6-0.9-2.6-2.4-2.9-4c0-0.1-0.1-0.3-0.1-0.4   c-0.1-1.1,0.1-2.2,0.6-3.2c0.8-1.5,2.2-2.6,3.9-2.9c0.1,0,0.1-0.1,0.2-0.1c1.1-0.3,2.2-0.3,3.2,0c2.5-0.8,5.2-1.5,7.7-2.5   C190.5,52.3,189.1,41.9,195.9,32.3z"/>
	<path fill="#23A38F" d="M4.2,9C7.5,11.4,17.2,21.5,21,22.6c0.3,0.1,0.7,0.2,1,0.2c2.4,1.2,4.8,1.6,7.5,0c2-1.2,3.2-3.1,3.6-5.4   c0.1,0.1,0.2,0.1,0.3,0.2c-0.2,1.5,0,3,0.6,4.6c-0.8-2,0.3,0.9,0.5,1.4c0.5,1.3,1,2.7,1.5,4c0.9,2.1,2,4.1,3.6,5.7   c2.6,2.7,7,2.8,9.7,0.3c2.3-2.2,2.7-5.6,1.3-8.2c0-0.2,0-0.4,0.1-0.6c0.2,0.2,0.3,0.4,0.5,0.6c0,0.7,0,1.4,0.3,2.1   c2.1,5.6,5,11.3,9.6,15.3c2.8,2.5,6.8,3,9.7,0.3c2.5-2.4,3.1-7.3,0.3-9.7c-0.1-0.1-0.3-0.3-0.4-0.4c4.1,3.7,8.5,2.6,10.4-2.9   c1,1.6,2,3.7,3.1,5.9c-0.2,1-0.3,2.1-0.1,3.2c0.3,2,1.2,4,2,5.8c0.3,0.8,0.7,1.5,1,2.3c0.1,0.2,0.2,0.4,0.3,0.6   c1.3,3.3,4.5,5.4,8.2,4.5c2.9-0.7,5.3-3.7,5.3-6.7c6.8,8.9,11,21.3,10.1,32.6c-1.2,14-11,15.7-22.8,15.8   c-14.2,3.5-42.2,1.7-50.3-11.9c0.1,0,0.2,0,0.3,0c0.1,0,0.1,0,0.2,0c3-0.4,5.2-3.8,5.2-6.6c0-2.5-1.3-4.6-3.3-6   c-0.7-0.5-1.5-0.8-2.3-0.9c-0.1,0-0.2,0-0.2,0c-1.6-0.8-3.3-1.5-5-1.9c-3.1-0.8-6.4-1.3-9.6-1.6c-1.2-0.3-2.2-0.5-3-0.4   c0-0.2,0-0.3,0-0.5c1.4-0.4,2.7-0.9,4-1.4c2-0.4,3.9-1,5.8-2.1c1.9-1.1,3.1-2.9,3.5-5c0.1-0.2,0.1-0.3,0.1-0.5   c0.1-1.3-0.1-2.7-0.8-3.9c-1-1.8-2.8-3.1-4.8-3.5c-0.1,0-0.2-0.1-0.3-0.1c-1.3-0.4-2.6-0.3-3.9,0c-3-1-6.4-1.7-9.5-2.9   C17.3,41.7,12.8,20.5,4.2,9z"/>
	<g>
		<g>
			<g>
				<path fill="#A18A33" d="M110.5,86.9l-0.3,0.3c-1.8-2.9-3.8-5.8-5.5-8.8c-0.9-1.5-1.8-3-2.5-4.6c-0.7-1.6-1.6-3.2-1.6-4.9      c0.3,1.7,1.5,3.1,2.5,4.5c1,1.4,2.1,2.7,3.3,4c1.9,2.1,3.8,4.2,5.7,6.2c2-4.8,4.2-9.5,6.3-14.3c-1.8,5.2-3.5,10.4-5.1,15.6      c0,0,0,0,0,0l0,0c-0.2,0.8-0.5,1.5-0.7,2.3c-0.8,3-1.6,6-2.3,9.1c-0.4,2-0.7,3.8-1,5.8c0.4-0.6,0.7-1.2,1.1-1.7      c0.8-1.1,1.7-2.2,2.7-3.2c1.9-2,3.9-3.8,6-5.5c4.2-3.4,8.5-6.5,12.4-10.1c-3.4,4.1-7.4,7.7-11.1,11.6c-1.8,1.9-3.6,3.9-5.1,6      c-0.7,1-1.4,2.1-2.1,3.2c-0.6,1-1.1,2.2-1.6,3.5l-2.6-1.3c0,0.4-0.1,0.7-0.1,1.1l-3.9-0.6c0.5-3.1,1.4-6.4,2.4-9.3      C108.4,92.5,109.4,89.7,110.5,86.9z"/>
			</g>
			<path fill="#F0563D" d="M96.1,67.3c2.4,0.8,5.1-0.8,5.9-3.5c0.9-2.7-0.4-5.6-2.8-6.4c-2.4-0.8-5.1,0.8-6,3.5     C92.5,63.7,93.7,66.5,96.1,67.3z"/>
			<path fill="#F0563D" d="M93.2,85.5c2.4,0.8,5-0.5,5.7-2.9c0.7-2.4-0.6-5-3-5.8c-2.4-0.8-5,0.5-5.8,2.9     C89.4,82.1,90.7,84.7,93.2,85.5z"/>
			<path fill="#F0563D" d="M95.5,97.8c2.4,0.8,5-0.5,5.8-2.9c0.7-2.4-0.6-5-3-5.8c-2.4-0.8-5,0.5-5.8,2.9     C91.7,94.4,93.1,97,95.5,97.8z"/>
			<path fill="#F0563D" d="M115.6,66.9c3.1,1,6.4-0.6,7.4-3.7c1-3.1-0.8-6.4-3.9-7.4c-3.1-1-6.4,0.6-7.4,3.7     C110.8,62.6,112.5,65.9,115.6,66.9z"/>
			<path fill="#F0563D" d="M139.4,81.4c3.1,1,6.4-0.6,7.4-3.7c1-3.1-0.8-6.4-3.9-7.4c-3.1-1-6.4,0.6-7.4,3.7     C134.5,77,136.3,80.4,139.4,81.4z"/>
			<path fill="#F0563D" d="M103.3,76.9c3.1,1,6.4-0.6,7.4-3.7c1-3.1-0.8-6.4-3.9-7.4c-3.1-1-6.4,0.6-7.4,3.7     C98.4,72.5,100.2,75.8,103.3,76.9z"/>
			<path fill="#F0563D" d="M114.7,79.1c3.1,1,6.4-0.6,7.4-3.7c1-3.1-0.8-6.4-3.9-7.4c-3.1-1-6.4,0.6-7.4,3.7     C109.9,74.8,111.6,78.1,114.7,79.1z"/>
			<path fill="#F0563D" d="M128.9,90.4c3.8,1.3,7.8-0.8,9-4.5c1.2-3.8-0.9-7.8-4.7-9.1c-3.8-1.3-7.9,0.8-9,4.5     C123,85.1,125.1,89.2,128.9,90.4z"/>
			<path fill="#F0563D" d="M82.2,76.4c2.4,0.8,5.2-1,6.1-4.1c1-3.1-0.2-6.2-2.6-7c-2.4-0.8-5.2,1-6.1,4.1     C78.6,72.5,79.8,75.6,82.2,76.4z"/>
			<path fill="#F0563D" d="M106.6,106.3c3.5,1.1,7.1-0.7,8.2-4.1c1.1-3.4-0.9-7.1-4.3-8.2c-3.5-1.1-7.1,0.7-8.2,4.1     C101.2,101.5,103.2,105.2,106.6,106.3z"/>
			<path fill="#F0563D" d="M133.9,70.2c2.4,0.8,5.2-1,6.1-4.1c1-3.1-0.2-6.2-2.6-7c-2.4-0.8-5.2,1-6.1,4.1     C130.3,66.3,131.5,69.4,133.9,70.2z"/>
			<path fill="#F0563D" d="M140.7,92.1c1.8,0.6,3.7-0.4,4.2-2.1c0.6-1.8-0.4-3.7-2.2-4.3c-1.8-0.6-3.7,0.4-4.3,2.1     C137.9,89.6,138.9,91.5,140.7,92.1z"/>
			<path fill="#F0563D" d="M127.2,75.3c1.8,0.6,3.7-0.4,4.3-2.1c0.5-1.8-0.4-3.7-2.2-4.3c-1.8-0.6-3.7,0.4-4.3,2.1     C124.4,72.8,125.4,74.7,127.2,75.3z"/>
			<path fill="#F0563D" d="M92.2,75.2c1.8,0.6,3.7-0.4,4.2-2.1c0.6-1.8-0.4-3.7-2.2-4.3c-1.8-0.6-3.7,0.4-4.2,2.1     C89.4,72.7,90.4,74.6,92.2,75.2z"/>
		</g>
	</g>
</g>
</svg>