<?xml version="1.0" encoding="UTF-8"?>
<!-- Generator: Adobe Illustrator 17.1.0, SVG Export Plug-In . SVG Version: 6.00 Build 0)  -->
<!DOCTYPE svg PUBLIC "-//W3C//DTD SVG 1.1//EN" "http://www.w3.org/Graphics/SVG/1.1/DTD/svg11.dtd">
<svg version="1.1" id="Layer_1" xmlns="http://www.w3.org/2000/svg" xmlns:xlink="http://www.w3.org/1999/xlink" x="0px" y="0px" viewBox="0 0 200 206" enable-background="new 0 0 200 206" xml:space="preserve"><script xmlns=""/>
<g>
	<path fill="#FFFFFF" d="M187.4,105.3c1.7-1,3.4-2.4,4.1-4.2c-1.2,1.6-3,2.3-4.7,2.9c-1.8,0.5-3.7,0.8-5.5,1   c-3.4,0.3-6.8,0.3-10.2,0.2c-0.3-0.2-0.5-0.4-0.8-0.6c1.4-1,2.9-2,4.4-2.9c2-1.3,4.1-2.6,6.1-3.9c2.1-1.4,4.1-2.9,6.1-4.7   c1.9-1.9,4.1-4,5.2-7.8l-8.5-1.6c0.1,1-0.8,2.8-2,4.5c-1.2,1.7-2.8,3.4-4.5,5.1c-1.6,1.7-3.4,3.3-5.2,5c-1.8,1.7-3.6,3.4-5.2,5.4   l-1,0.8l0.5,0.6c-1.4-0.1-2.9-0.1-4.3-0.2c1.2-4.1,4.7-10,7.6-13.7l-2.3-1.8c-1.9,2.4-5.7,8.1-7.6,13.1c-1-12-5.7-23.1-13-32   c0.2-0.2,0.5-0.4,0.7-0.6c0.5-0.4,1-0.9,1.6-1.3c5.5,0.7,11.1,2,15.8,4.7l1.5-2.6c-4.3-2.5-9.3-3.8-14.2-4.7   c0.9-0.7,1.8-1.4,2.7-2.1c3.9,0.8,7.7,2,11.6,3.2c2.5,0.8,5.2,1.6,7.9,2.2c2.7,0.6,5.8,1.1,8.7,1.2l-0.8-11.2   c-2.3,0.6-4.5,0.8-7,0.9c-3.1,0.1-4.4,0.1-7.6-0.1c-2.5-0.1-5.1-0.2-7.8-0.3c2-1.6,4.1-3.1,6.2-4.6c1.6-1.1,3.2-2.2,4.9-3.1   c1.7-0.9,3.5-1.8,5.5-1.9c-2-0.6-4.1-0.2-6.1,0.3c-2,0.5-3.9,1.2-5.8,1.9c-3.4,1.4-6.6,3-9.8,4.7c0.7-2.4,1.2-4.7,1.8-6.9   c0.5-1.7,1.3-3.3,2.2-5.4c0.8-2,1.8-4.3,1.8-7.4l-8.6,0.8c0.3,1,0.2,2.7-0.1,4.6c-0.3,1.9-0.8,4.2-1,6.5c-0.2,3.7,0,7.1-0.4,10.3   c-1.8,1-3.6,2.1-5.4,3.2c0-1.8,0-3.6,0-5.5c0-2.9,0.1-5.5,0-7.6l-2.9,0.2c0.1,2,0.1,4.6,0,7.4c0,2.5,0,5,0,7.3   c-0.1,0.1-0.2,0.1-0.3,0.2c-10.1-9.6-23.7-15.7-38.6-16.6c0-0.6-0.1-1.2-0.1-1.8c5.8-2.2,13.2-6.4,15-8.5l-2.2-2   c-1.5,1.6-8,5.3-13.1,7.4c-0.2-2.2-0.3-4.3-0.6-6.5c1-1.9,2.5-3.5,4.2-5c1.7-1.5,3.5-2.9,5.4-4.4c1.9-1.5,3.9-2.9,5.8-4.7   c1.9-1.7,3.9-4,5.2-6.5l-8.3-3.9c-0.5,1.9-1.4,3.6-2.6,5.4c-1.2,1.8-2.7,3.6-4.2,5.4c-1.5,1.8-3.1,3.8-4.6,5.8   c-0.5,0.8-1,1.6-1.4,2.4c-0.8-6.6-2-13.2-3.7-19.6c0,5.8-0.1,11.6-0.3,17.3c-1.9-2.1-4-3.9-6.1-5.5c-4.1-3.2-8.5-6-11.9-9.1l-5,6.7   C79,24.1,83.7,26,88,28.3c3.3,1.7,6.4,3.7,8.9,6.2c-0.2,3.4-0.3,6.8-0.6,10.2c-1.4-0.5-4.1-2.4-6-3.6c-4.3-2.9-6.1-4-7.5-3.7   c-0.5,0.1-0.9,0.5-1.2,0.9c0,0,5.3,3.9,7.1,5.2c3.5,2.4,5.8,3.8,7.5,4.2c0,0.2,0,0.4,0,0.6c-15.7,0.7-29.9,7.2-40.3,17.5   c-1.3-0.8-2.6-1.6-3.9-2.4c0.9-3.5,0-7.8-0.8-12.1c-0.9-4.3-1.7-8.7-0.4-10.9l-2.6-1.5c-1.9,3.2-0.9,8,0.1,13   c0.7,3.6,1.4,7.2,1,9.9c-3.2-1.9-6.5-3.8-9.9-5.5c-0.2-0.1-0.3-0.1-0.5-0.2c-1.1-3.7-3.1-6.9-5-10c-1-1.7-2.1-3.3-2.9-4.9   c-0.4-0.8-0.8-1.6-1.2-2.4l-0.4-1.1l-0.5-1.4l-6.7,3.2l0.8,1.3l0.9,1.5c0.6,0.9,1.3,1.7,1.9,2.5c1.3,1.6,2.7,3.1,4,4.5   c1.3,1.5,2.6,2.9,3.8,4.4c-6.3-2.7-12.7-5-19.4-6.3c6.1,2.9,11.9,6.3,17.5,9.8c-1.4,0.2-2.8,0.3-4.2,0.4c-1.7,0.1-3.5,0.4-5,0.5   c-1.4,0.1-3.2,0-5.2,0.3l1.7,7.4c1.3-0.5,2.9-0.8,4.7-1.4c1.8-0.5,3.3-1.1,4.9-1.6c2.5-0.8,5-1.7,7.5-2.7c3,2,5.9,4.1,8.8,6.2   c-1.1,0.4-2.2,0.7-3.2,1c-1.9,0.6-3.6,1.1-4.8,1.7c-1.1,0.6-2.2,1.2-3.4,1.9c-2.1,1.1-4.2,2.2-6.2,3.5l-0.2-0.6   c-2.1,0.8-2.1,2.4-2,3l0.3,2.4l2-1.3c2.4-1.6,5.1-3,7.6-4.4c1.1-0.6,2.3-1.2,3.4-1.9c0.9-0.5,2.5-1,4.2-1.5   c1.8-0.5,3.6-1.1,5.1-1.8c1.2,0.9,2.3,1.7,3.5,2.6c-7.5,9.3-12.2,20.9-12.9,33.5c-0.1,0-0.2,0-0.4,0c-2-5.4-8-13.9-8.1-14l-2.3,1.9   c1,1.2,5.5,8.1,7.3,12.2c-2.4,0.1-4.8,0.1-7.2,0.2c-0.7-0.9-1.3-1.8-2-2.8c-1.2-1.7-2.5-3.4-3.8-5c-1.3-1.7-2.7-3.3-4.2-4.9   c-0.8-0.8-1.6-1.6-2.4-2.4l-1.4-1.2l-1.2-1l-4.5,7.2l1.4,0.7l1.2,0.6c0.8,0.4,1.7,0.9,2.5,1.4c1.6,1,3.3,2.2,4.9,3.4   c1.6,1.2,3.2,2.5,4.8,3.8c0,0,0.1,0.1,0.1,0.1c-4.9,0-9.9-0.1-14.8-0.4c5.3,1.9,10.7,3.2,16.2,4.3c-2.2,1.4-4.4,2.8-6.5,4.3   c-1.6,1.1-3.2,0.2-4.7,1.1c-1.6,1-3.3,4-5.1,5.3l3.9,4.5c1.2-1.2,2.6-2.3,4.1-3.5c1.6-1.3,3-2.6,4.4-3.9c2.6-2.4,5.3-4.8,8-6.9   c1.9,0.3,3.9,0.6,5.9,0.9c-0.9,1.3-2,2.7-3.2,4.1c-3.2,3.7-6.8,8-5.3,12.5l2.8-1c-1-2.9,1.9-6.3,4.8-9.6c1.6-1.9,3.2-3.7,4.2-5.6   c0.3,0,0.5,0.1,0.8,0.1c0.6,11.3,4.5,21.7,10.7,30.4c-0.8,0.8-1.5,1.7-2.3,2.5c-3.2,0-6.7-0.3-10-0.6c-5-0.5-9.7-0.9-13.6-0.5   l0.3,2.9c3.6-0.4,8.2,0,13,0.5c2.5,0.2,5.1,0.5,7.6,0.6c-0.5,0.6-1.1,1.1-1.6,1.7l-3.9,4.5l-0.1,0.1c-0.6-0.3-1.3-0.4-1.8-0.4   c-2.7-0.1-4.9,0.4-7.2,0.9c-2.3,0.5-4.4,1-6.6,1.2c-2.2,0.2-4.4-1.8-6.8-1.8c-2.3,0-4.7,1.8-7.5,1.9l2.5,8.6   c1.6-1.2,3.7-1.9,5.8-2.7c2.2-0.7,4.4-1.3,6.6-1.9c2.3-0.6,4.5-1.5,6.6-2c1.9-0.5,3.9-0.9,5.6-0.9l-1.3,1.3   c-1.4,1.4-2.8,2.9-4.1,4.4c-0.7,0.7-1.3,1.5-1.9,2.3c-0.3,0.4-0.6,0.8-0.9,1.3c-0.1,0.2-0.3,0.5-0.2,0.8c0.2,0.4,0.5,0.2,0.7,0.2   c-0.2,0-0.6-0.1-0.5-0.2c0-0.2,0.2-0.4,0.3-0.5c0.3-0.4,0.7-0.7,1.1-1c0.8-0.6,1.6-1.2,2.4-1.8l4.9-3.4c0.6-0.4,1.2-0.8,1.8-1.2   c0.2,0.6,0.4,1.2,0.5,1.7c0.4,2.1,0.7,4.3,0.7,6.5c0.1,2.2-0.1,4.5-0.2,6.8l-0.3,3.6c-0.1,1.3-0.3,2.4-0.3,4.2l11.6-3.5   c-0.6-0.4-1.2-1.4-1.7-2.4c-0.5-1-1-2-1.4-3.1c-0.8-2.1-1.7-4.3-2.4-6.6c-0.7-2.2-1.4-4.4-2.3-6.7c-0.4-0.9-0.8-1.8-1.3-2.7   c0.1,0,0.1-0.1,0.2-0.1l4.7-3.7l2.9-2.3c0.8,2.4,1.9,5.5,3.3,9.1c1,2.6,2.3,5.7,2.3,6.4c0-0.1,0.1-0.7,0.6-1l1.7,2.4   c1.3-0.9,0.8-2.2-1.8-8.9c-1.3-3.2-2.9-7.3-3.6-10L53,146c10.5,11.8,25.6,19.6,42.7,20.5c0.1,0.6,0.1,1.3,0.2,1.9   c-4.2,1.5-8.7,4.6-12.3,7.4l1.8,2.3c2.1-1.6,6.1-4.6,10-6.4l-6.5,6.7l-4.5,4.5l-2.3,2.2l-2.3,2.1l8.8,6.8l1.5-3l1.4-3.1l2.6-6.1   l2.6-6.4c0.7,6.3,1.4,12.5,2.3,18.9c1.2-6.9,2-13.9,2.5-20.8c5.6,5.9,10.7,12,15.6,18.4l8.2-9.3c-7.2-4.3-14.6-8.2-22.1-11.6   c0.9,0.1,1.8,0.3,2.8,0.5c7.2,1.4,11.3,2.1,12-0.5l-2.9-0.8c0.1-0.3,0.3-0.4,0.4-0.5c-1,0.4-6.2-0.6-8.9-1.1   c-1.8-0.4-3.3-0.7-4.6-0.8c0-0.4,0.1-0.8,0.1-1.2c17.9-0.8,33.9-9.2,44.5-22.1c1.9,1.2,3.8,2.3,5.7,3.4c-1.6,3.5-2.3,16.7-1.5,19.2   l2.8-0.9c-0.5-1.7,0-13.6,1.2-16.7c3,1.8,6,3.5,9,5.2l0,0.1c0.7,1.5,0.9,3.4,1,5.2l0.1,3.6c0.1,1.9,0.1,5.9,0.3,8   c0.3,2,0.5,4.5,2.6,7.2l6.8-6.8c-0.6,0.1-1.7-1.1-2.5-2.5c-0.8-1.5-1.6-3.1-2.2-4.9l-2-5.3c-0.4-1-0.7-1.9-1.1-2.9   c6.7,3.8,13.4,7.6,20.2,11.2c-5.5-4.4-11-8.7-16.6-12.9c1,0,1.9,0.1,2.9,0.2c2.8,0.3,5.5,0.9,8.8,1.1l-1.2-9.4   c-2.4,0.9-5.4,1.5-8.3,2.4c-2.1,0.7-4.3,1.4-6.3,2.6c-2.3-1.7-4.6-3.5-7-5.2c1.1-0.3,2.3-0.6,3.4-0.8c3.7-0.8,7.2-1.5,8.7-3.9   l-2.5-1.6c-0.9,1.3-3.9,2-6.8,2.6c-2,0.4-4,0.8-5.7,1.5c-2.1-1.6-4.3-3.2-6.4-4.7c5.5-8.3,8.9-17.9,9.6-28.3   c2.3,5,7.7,12.6,10.5,13.8l1.2-2.7c-1.9-0.8-6.5-7.2-8.7-11.6c2.5-0.2,5-0.4,7.5-0.7c0,0,0.1,0,0.1,0c1.8,2,3.6,4,5.6,5.9   c1.7,1.6,3.5,3.1,5.4,4.5c1,0.7,2,1.4,3,2.1l1.7,1l1.5,0.8l3.6-9l-1.6-0.4l-1.3-0.4c-0.9-0.3-1.9-0.6-2.9-1   c-1.9-0.8-3.8-1.7-5.7-2.7c-1-0.6-2-1.2-3-1.8c1.8-0.4,3.5-0.8,5.2-1.3C183.7,107.1,185.6,106.4,187.4,105.3z M53.5,72.6   c1.4,1.1,2.8,2.2,4.2,3.4c2.3,1.8,4.5,3.7,6.7,5.6c-3.3,1.8-7.6,3.3-9.7,4l-0.9,0.3l1,2.8l0.9-0.3c4-1.4,8.1-2.9,11.2-4.8   c0,0,0,0,0,0c-4.1,5.6-6.6,12.3-6.9,19.6c-1.9,0.1-3.9,0.3-5.9,0.4c-4.3,0.2-8.6,0.4-12.9,0.6C42,92.3,46.4,81.4,53.5,72.6z    M82.8,122.1c3.2-2.5,6.4-4.9,9.6-7.4c0,7.6,0.3,15.1,0.8,22.6c-7.2-0.9-13.8-3.9-18.9-8.4L82.8,122.1z M68.2,122   c-2-3-3.5-6.4-4.4-10c5.2,0.1,10.5,0.1,15.7,0c-1,0.9-2.1,1.7-3.1,2.6C73.7,117,70.9,119.5,68.2,122z M92.9,94   c-5.8-5-11.8-9.9-17.9-14.6c5.3-4.4,12-7.2,19.4-7.9c-0.2,2.8-0.4,5.6-0.6,8.4C93.4,84.6,93.1,89.3,92.9,94z M87.8,101.5   c-8.3,0.4-16.5,1-24.8,1.5c0.3-6.5,2.5-12.5,6.2-17.5C75.4,90.8,81.5,96.2,87.8,101.5z M51.1,138.9c-5.6-8.1-9.1-17.7-9.8-28   c4.3,0.4,8.6,0.7,12.9,0.8c2.2,0.1,4.3,0.1,6.5,0.1c1,4.4,2.8,8.5,5.2,12.1c-1.1,1-2.1,2-3.2,3.1c-4.9-2.3-14-3.3-16.4-3.4l0,3   c3.1,0,10.1,1.2,14.1,2.6c-0.5,0.5-1.1,1-1.6,1.5C56.3,133.5,53.7,136.2,51.1,138.9z M55.3,144.1l9-7.3l0.6-0.5   c0.1,0.6,0.2,1.2,0.2,1.8c0.5,3.9,1.1,8,3.6,10l1.8-2.3c-1.6-1.2-2-4.7-2.5-8c-0.2-1.2-0.3-2.4-0.5-3.5l4.4-3.5   c5.8,5.2,13.2,8.7,21.4,9.5c0.2,2.8,0.4,5.7,0.6,8.5c0.4,4.9,0.9,9.9,1.4,14.8C79.3,162.6,65.1,155.3,55.3,144.1z M95.5,57.2   c-0.3,3.8-0.6,7.6-0.9,11.4c-8.4,0.6-16,3.9-22,9c-0.3-0.2-0.5-0.4-0.8-0.6c0-1.6-0.3-3.5-0.7-5.7c-0.4-2-1.2-6.3-0.5-6.8l-1-2.8   c-3.2,1.1-2.3,5.7-1.5,10.2c0.2,0.9,0.3,1.9,0.5,2.8c-2.1-1.6-4.2-3.2-6.3-4.7c-1.3-0.9-2.6-1.8-4-2.7c9.8-9.4,23-15.4,37.6-16.2   C95.8,53.2,95.7,55.2,95.5,57.2z M138.8,66.5c-2,1.3-4,2.6-6,3.9c-1.5,1-3,2.1-4.5,3.2c0-0.8-0.1-1.7-0.2-2.5   c-0.3-2.2-0.5-4.4,0.1-6l-2.7-1.1c-1,2.3-0.6,4.9-0.3,7.5c0.1,0.8,0.2,1.7,0.2,2.4c0,0.6,0.1,1.2,0.1,1.7c0,0,0,0.1,0,0.1   c-1,0.7-1.9,1.4-2.9,2.1c-5.3-4.6-12-7.8-19.4-8.9c0-3.8,0-7.7-0.1-11.5c-0.1-2.1-0.1-4.1-0.2-6.2   C116.7,52.1,129.3,57.7,138.8,66.5z M124,101.3c-1.9-0.2-3.9-0.3-5.9-0.4c-2-0.1-4.2-0.1-6-0.1c-0.6,0-1.2,0-1.8,0   c5.6-4.5,11.1-9.1,16.5-13.7c2.9,4.4,4.7,9.5,5.1,15C129.3,101.8,126.6,101.5,124,101.3z M131.3,111.1c-0.8,3.9-2.4,7.6-4.6,10.9   c-1-0.8-1.9-1.5-2.9-2.2c-3.8-2.9-7.5-6-11.2-9c1.8-0.1,3.4-0.1,5.1-0.1l5.7,0.1C126,110.9,128.7,111,131.3,111.1z M102.9,93   l0.2-12.7c0.1-2.8,0.1-5.6,0.1-8.5c6.4,1,12.3,3.8,17,7.7C114.3,84,108.5,88.5,102.9,93z M102.6,113.9c5.3,4.3,10.7,8.5,16.3,12.4   c0.9,0.6,1.8,1.2,2.6,1.8c-5.1,4.7-11.6,7.9-18.9,9C102.6,129.4,102.6,121.6,102.6,113.9z M102.1,163.6c0.2-5.1,0.4-10.1,0.5-15.1   c0.1-2.8,0-5.6,0.1-8.3c8.3-1.1,15.8-4.8,21.4-10.2c0.6,0.4,1.2,0.8,1.8,1.2c-0.9,5-0.1,14.2,0.6,16.3l2.8-0.9   c-0.7-2.2-1.1-9.4-0.7-13.5c4.1,2.8,8.3,5.6,12.5,8.2c1,0.6,1.9,1.2,2.9,1.8C133.8,154.9,118.9,162.7,102.1,163.6z M147.6,137.8   c-1-0.7-1.9-1.4-2.9-2.1c-3.5-2.6-6.9-5.2-10.3-7.8c3.8-1.1,8.5-1.9,10.5-1.7l0.3-2.9c-2.3-0.2-8.9,0.8-13.7,2.4   c-0.8-0.6-1.7-1.3-2.5-1.9c2.5-3.8,4.3-8,5.2-12.6c4.1,0.1,8.2,0.2,12.4,0.2c3.3,0,6.7-0.1,10-0.2C156,120.9,152.8,130,147.6,137.8   z M147,103.5c-4.1-0.4-8.1-0.8-12.2-1.2c-0.4-6.3-2.5-12.2-5.8-17.2c0.5-0.5,1.1-0.9,1.6-1.4c3.7,2.1,7.6,3,11.5,3.9   c1.5,0.3,3,0.7,4.5,1.1l0.8-2.9c-1.5-0.4-3.1-0.8-4.7-1.1c-3.4-0.7-6.7-1.5-9.7-3c1.7-1.4,3.4-2.9,5.1-4.3c2-1.7,4.1-3.4,6.1-5.1   c7.3,8.9,11.8,20,12.5,32.1C153.5,104.1,150.3,103.8,147,103.5z"/>
</g>
</svg>