<?xml version="1.0" encoding="UTF-8"?>
<!-- Generator: Adobe Illustrator 17.1.0, SVG Export Plug-In . SVG Version: 6.00 Build 0)  -->
<!DOCTYPE svg PUBLIC "-//W3C//DTD SVG 1.1//EN" "http://www.w3.org/Graphics/SVG/1.1/DTD/svg11.dtd">
<svg version="1.1" id="Layer_1" xmlns="http://www.w3.org/2000/svg" xmlns:xlink="http://www.w3.org/1999/xlink" x="0px" y="0px" viewBox="0 0 200 88.5" enable-background="new 0 0 200 88.5" xml:space="preserve"><script xmlns=""/>
<g>
	<g>
		<path fill="#E6E4E4" d="M43.8,30.3l-6,7.5C38.5,35.1,40.4,32.5,43.8,30.3z"/>
		<g>
			<path fill="#D45D01" d="M101.1,29.6C87.5,10.1,51.3-1.3,28.5,14c-6.3,4.2-11.3,9.7-14.8,15.6c-8.4,14.1-8.6,30.9,1.1,40.7     c15.9,16,54.2,16.3,72.4,4C109.2,59.5,110.2,42.7,101.1,29.6z M46.8,40.9c2.2-11.2,25.7-6.5,17.1,5.9     C57.8,55.7,45,47.7,46.8,40.9L46.8,40.9z"/>
		</g>
		<g>
			<path fill="#F0563D" d="M28.5,15.5c-6.3,4.2-11.3,9.7-14.8,15.6c-4.9,12.4-3.5,27.8,6,36.1c16.6,14.4,46.4,7,62.7-4.6     c9.6-6.8,17.6-19.4,18.7-31.5C87.5,11.5,51.2,0.2,28.5,15.5z M63.8,48.3c-6.1,8.8-18.9,0.9-17-6l-0.1,0.1     C48.9,31.1,72.4,35.9,63.8,48.3z"/>
		</g>
		<g>
			<g>
				<path fill="#FFE6B3" d="M16.9,30.6c0,3.3,1.6,6.2,3.8,8.6c1.3,1.4,3.6-0.7,2.2-2.1c-1.6-1.8-3-3.8-3-6.3      C19.9,28.8,16.9,28.6,16.9,30.6L16.9,30.6z"/>
			</g>
			<g>
				<path fill="#FFE6B3" d="M41,24.6c0.1-0.1,0.1-0.1,0.2-0.2c0.3-0.3-0.3,0.2,0.1-0.1c0.2-0.1,0.4-0.3,0.7-0.4      c0.5-0.3,1-0.7,1.5-1.1c0.6-0.6,0.6-1.6,0.1-2.2C43,20,42.1,20,41.4,20.6c-0.1,0.1-0.1,0.1-0.2,0.2c-0.3,0.3,0.3-0.2-0.1,0.1      c-0.2,0.1-0.4,0.3-0.7,0.4c-0.5,0.3-1,0.7-1.5,1.1c-0.6,0.6-0.6,1.6-0.1,2.2C39.5,25.1,40.4,25.1,41,24.6L41,24.6z"/>
			</g>
			<g>
				<path fill="#FFE6B3" d="M41.2,51.3c0.8,2.4,2.1,4.5,4.6,5.5c0.8,0.3,1.7-0.3,1.9-1c0.3-0.8-0.2-1.6-1-1.9      c-1.3-0.5-2.1-2-2.5-3.3C43.6,48.8,40.7,49.5,41.2,51.3L41.2,51.3z"/>
			</g>
			<g>
				<path fill="#FFE6B3" d="M78.6,32.8c0.5,1.1,0.3,2.4,0.3,3.5c-0.1,2,3,2.1,3.1,0.1c0.1-1.8,0.1-3.4-0.7-5.1      c-0.3-0.8-1.4-1-2.1-0.6C78.5,31.2,78.3,32.1,78.6,32.8L78.6,32.8z"/>
			</g>
			<g>
				<path fill="#FFE6B3" d="M68.6,12.3c1.4-0.6,2.9-1.1,4.3-1.7c1.8-0.8,0.3-3.5-1.5-2.7c-1.4,0.6-2.9,1.1-4.3,1.7      C65.3,10.4,66.8,13.1,68.6,12.3L68.6,12.3z"/>
			</g>
			<g>
				<path fill="#FFE6B3" d="M66,20c0,2.3,0.4,4.5,0.4,6.7c0,2,3,2.1,3.1,0.1c0-2.3-0.4-4.5-0.4-6.7C69.1,18.2,66.1,18.1,66,20L66,20      z"/>
			</g>
			<g>
				<path fill="#FFE6B3" d="M68.9,54.6c1.6,0.1,3,0.2,4.5,0.7c1.9,0.7,2.8-2.3,0.9-2.9c-1.7-0.6-3.4-0.8-5.2-0.8      C67,51.5,66.9,54.6,68.9,54.6L68.9,54.6z"/>
			</g>
			<g>
				<path fill="#FFE6B3" d="M25.5,52.1c-1.3,1.8-2.6,3.6-3.8,5.4c-1.1,1.6,1.5,3.2,2.6,1.6c1.3-1.8,2.6-3.6,3.8-5.4      C29.3,52.1,26.6,50.5,25.5,52.1L25.5,52.1z"/>
			</g>
			<g>
				<path fill="#FFE6B3" d="M25.8,13.1c1.6,1.6,3.7,2.4,5.9,2.5c2,0.1,2.1-3,0.1-3.1c-1.4-0.1-2.8-0.5-3.8-1.5      C26.7,9.6,24.4,11.7,25.8,13.1L25.8,13.1z"/>
			</g>
			<g>
				<path fill="#FFE6B3" d="M85,23.2c1.8,0.9,3.7,0.9,5.6,1c2,0.1,2.1-3,0.1-3.1c-1.3,0-2.9,0.1-4.1-0.5c-0.7-0.4-1.6-0.3-2.1,0.5      C84.1,21.8,84.3,22.8,85,23.2L85,23.2z"/>
			</g>
		</g>
	</g>
	<g>
		<g>
			<path fill="#B7C11E" d="M134,73.4c19.1,9.5,51.3,23.7,57.6-5.7c0.2-1,0.4-2,0.5-3.1c3.6-25.8-23.2-50.7-46.9-57.2     c-11.4-3.1-34.3-10-47.1,6.2c-1.5,1.9-2.8,4-4,6.6C82.8,44.8,116.5,64.7,134,73.4z M170.3,39.5c-1.8,0-4-0.4-6.4-1.1l-1.9-0.8     c0.2,0.1,0.4,0.3,0.7,0.5c-9.5-3.1-21.6-10.2-26.7-15.9c0,0,0,0,0,0c-0.9-0.8-1.7-1.6-2.3-2.3C140.7,19.7,166.6,30.5,170.3,39.5z     "/>
		</g>
		<g>
			<path fill="#A6EDE7" d="M137.4,41.8c-0.9,5.2-1.6,10.6-1.3,15.9c0.8,0.5,1.7,1,2.5,1.5c2.2,1.3,4.4,2.4,6.7,3.5     c1.5-1.8,2.5-4.2,3.2-6.4c1.2-3.4,1.9-7.1,2.4-10.6c0.5-3.4,1-6.8,1.2-10.2c0-0.6,0.1-1.2,0.1-1.8c-4.2-2.2-8.3-4.7-11.5-7.2     C139.7,31.5,138.3,36.6,137.4,41.8z M98.2,13.5c0.7,5,2.3,10.2,4.8,14.7c0.3,0.5,0.6,1,0.9,1.6c0.2,0.4,0.5,0.8,0.7,1.2     c2.1,3.7,4.5,7.4,7.6,10.2c1.5,1.3,3,2.5,4.6,3.7c0.8,0.6,1.6,1.2,2.4,1.8c0.8,0.5,1.5,1.1,2.2,1.6c4.2,3,8.7,5.9,13.2,8.5     c0.5,0.3,1,0.6,1.5,0.9c0.8,0.5,1.7,1,2.5,1.5c2.2,1.3,4.4,2.4,6.7,3.5c0.4,0.2,0.9,0.4,1.3,0.6c4.3,1.9,8.8,3.4,13.4,4.4     c0.5,0.1,1,0.2,1.5,0.3c1.2,0.3,2.4,0.5,3.7,0.7c2.1,0.4,4.3,0.7,6.4,0.9c0.5,0.1,1,0.1,1.5,0.2c1.6,0.2,3.2,0.4,4.8,0.6     c0.4,0,0.8,0.1,1.2,0.1c0.1,0,0.2,0,0.2,0c1.6,0.2,3.3,0.3,4.9,0.2c0.5,0,1.1-0.1,1.6-0.2c2.1-0.3,4-1.1,5.6-2.6     c0.1-0.1,0.2-0.2,0.3-0.3c0.2-1,0.4-2,0.5-3.1c1.1-7.5-0.5-15-3.8-22c-0.3-0.5-0.5-1-0.8-1.6c-1.8-3.5-4.1-6.9-6.8-10.1     c-0.5-0.6-1-1.2-1.5-1.8c-1.7-1.9-3.5-3.8-5.5-5.5c-0.5-0.5-1-0.9-1.5-1.3c-3.4-2.9-7.1-5.6-10.9-7.8c-0.9-0.5-1.8-1-2.7-1.5     c-0.8-0.5-1.7-0.9-2.5-1.3c-0.5-0.2-1-0.5-1.5-0.7c-3.2-1.5-6.3-2.6-9.5-3.5c-0.9-0.2-1.8-0.5-2.8-0.8c-0.5-0.1-1-0.3-1.5-0.4     c-2.3-0.6-4.8-1.2-7.5-1.7c-0.4-0.1-0.9-0.2-1.3-0.2c-4.5-0.8-9.4-1.3-14.2-0.8c-0.5,0-0.9,0.1-1.4,0.2c-2.2,0.3-4.3,0.7-6.4,1.5     c-0.5,0.2-0.9,0.3-1.4,0.5C104.9,7.1,101.3,9.7,98.2,13.5z M136.1,22.1c-0.9-0.8-1.7-1.6-2.3-2.3c1.5,0,3.8,0.5,6.7,1.3     c0.4,0.1,0.9,0.3,1.3,0.4c3.3,1.1,7.1,2.6,10.8,4.4c0.4,0.2,0.9,0.4,1.3,0.6c2.9,1.4,5.6,3,8.1,4.6c0.5,0.3,0.9,0.6,1.4,0.9     c3.4,2.4,6,5,7,7.4c-1.8,0-4-0.4-6.4-1.1l-1-0.4l-0.9-0.4c0.2,0.1,0.4,0.3,0.7,0.5c-0.4-0.1-0.8-0.3-1.2-0.4     c-2.5-0.9-5.2-2-7.9-3.4c-0.4-0.2-0.9-0.4-1.3-0.7c-4.2-2.2-8.3-4.7-11.5-7.2c-0.4-0.3-0.8-0.6-1.2-1     C138.2,24.3,137,23.2,136.1,22.1C136.1,22.1,136.1,22.1,136.1,22.1z M137.4,41.8c-0.9,5.2-1.6,10.6-1.3,15.9     c0.8,0.5,1.7,1,2.5,1.5c2.2,1.3,4.4,2.4,6.7,3.5c1.5-1.8,2.5-4.2,3.2-6.4c1.2-3.4,1.9-7.1,2.4-10.6c0.5-3.4,1-6.8,1.2-10.2     c0-0.6,0.1-1.2,0.1-1.8c-4.2-2.2-8.3-4.7-11.5-7.2C139.7,31.5,138.3,36.6,137.4,41.8z"/>
		</g>
		<g>
			<path fill="#FFE6B3" d="M179.3,29.1c0.2,2.2,0.2,4.4,0.1,6.6c-0.1,4-0.2,8.1-0.4,12.1c-0.4,5.6-1,11.2-1.2,16.8     c-0.1,1.9-0.1,3.8,0,5.7c0,0.8,0.1,1.6,0.2,2.4c0.1,1.2,0.3,2.6,1,3.7c1.2,1.8,3,0.5,3.9-0.8c1.2-1.5,2.1-3.3,2.8-5.1     c0.3-0.7,0.6-1.4,0.9-2.1c0.9-2.2,1.8-4.6,2.1-7c0.5-3.5-0.4-7.2-0.7-10.8c-0.2-2.4-0.6-5.6,0.3-8.1c-0.3-0.5-0.5-1-0.8-1.6     c-1,2-1.2,4.4-1.1,6.6c0.1,3.6,0.8,7.1,1,10.6c0.1,2.5-0.4,4.8-1.2,7.2c-0.6,1.8-1.3,3.6-2.1,5.3c-0.4,0.9-0.8,1.7-1.3,2.5     c-0.5,0.8-1,1.8-1.8,2.3c-0.2,0.1-0.2,0.2-0.4,0.2c-0.1,0-0.2,0-0.2,0c0,0-0.1,0-0.1-0.1c-0.1-0.1-0.2-0.2-0.2-0.3     c-0.7-1.2-0.7-3-0.8-4.3c0-0.2,0-0.4,0-0.6c-0.2-2.6-0.1-5.3,0-7.9c0.3-5.6,1-11.2,1.2-16.9c0.2-3.8,0.3-7.5,0.3-11.3     c0-1.2,0-2.4,0-3.6C180.3,30.2,179.8,29.6,179.3,29.1z"/>
			<path fill="#FFE6B3" d="M161.6,37.6c-0.4,4.8-0.9,9.6-1.3,14.4c-0.4,5.1-1,10.5-0.2,15.6c0,0.1,0,0.2,0.1,0.4     c0.6,3.4,2.1,7,6.1,7c3.3-0.1,5.5-2.4,6.9-5.2c1.1-2.3,1.8-5,2.1-7.1c1.1-6.3,1-12.7,0.6-19c-0.3-5.3-0.8-10.6-1.5-15.8     c-0.2-1.4-0.4-2.9-0.5-4.3c-0.5-0.5-1-0.9-1.5-1.3c0.1,2.9,0.7,5.9,1,8.8c0.6,5.9,1.2,11.8,1.4,17.7c0.1,5.6,0,11.3-1.5,16.7     c-0.4,1.4-0.8,2.8-1.6,4.2c-0.6,1.1-1.4,2.2-2.4,2.9c-1.5,1.1-3.8,1.5-5.2,0.5c-1.2-0.9-1.8-2.4-2.2-3.8     c-0.1-0.4-0.2-0.8-0.3-1.2c-0.3-1.8-0.4-3.6-0.4-5.4c-0.1-8.2,1.1-16.4,1.8-24.6l-0.9-0.4c0.2,0.1,0.4,0.3,0.7,0.5     C162.3,37.9,161.9,37.8,161.6,37.6z"/>
			<path fill="#FFE6B3" d="M158.8,12.8c1,1.1,1.6,2.5,2.1,3.9c1.4,4.6,1.3,9.6,1.1,14.4c0.5,0.3,0.9,0.6,1.4,0.9     c0.1-2.1,0.1-4.2,0.1-6.3c-0.1-3.7-0.3-8-2-11.5C160.6,13.8,159.7,13.3,158.8,12.8z"/>
			<path fill="#FFE6B3" d="M152.8,19.1c-0.2,2.3-0.2,4.5-0.3,6.8c0.4,0.2,0.9,0.4,1.3,0.6c0.1-3.4,0.2-6.7,0.6-10.1     c0.2-1.4,0.3-2.9,1-4.1c0.2-0.4,0.5-0.7,0.8-0.8c-0.5-0.2-1-0.5-1.5-0.7c0,0,0,0.1-0.1,0.1C153,13.1,153,16.5,152.8,19.1z"/>
			<path fill="#FFE6B3" d="M138.1,31.9c-1.3,5.3-2.3,10.6-2.9,16c-0.3,2.9-0.5,5.9-0.4,8.8c0,0,0,0.1,0,0.1c0.1,2.3,0.3,4.9,1.4,7     c0.9,1.8,2.4,3,4.5,2.9c2.5-0.1,4.6-1.6,6.1-3.5c0.2-0.2,0.3-0.4,0.4-0.6c1.9-2.9,3.1-6.2,3.9-9.6c0.8-3.4,1.4-6.8,1.8-10.3     c0.4-2.8,0.6-5.7,0.8-8.5c-0.4-0.2-0.9-0.4-1.3-0.7c0,0.6-0.1,1.2-0.1,1.8c-0.2,3.4-0.7,6.9-1.2,10.2c-0.5,3.6-1.2,7.2-2.4,10.6     c-0.7,2.2-1.7,4.6-3.2,6.4c-0.5,0.6-1.1,1.1-1.7,1.6c-1.5,1-3.9,1.7-5.4,0.3c-1.5-1.5-1.8-3.9-2-5.9c0-0.3,0-0.6-0.1-0.9     c-0.4-5.3,0.4-10.7,1.3-15.9c0.9-5.2,2.2-10.3,3.3-15.4c-0.4-0.3-0.8-0.6-1.2-1C139.1,27.6,138.6,29.8,138.1,31.9z"/>
			<path fill="#FFE6B3" d="M140.4,21.1c0.4,0.1,0.9,0.3,1.3,0.4c0.1-0.6,0.2-1.2,0.3-1.8c0.7-4.3,1-8.8,0.5-13.2     c-0.5-0.1-1-0.3-1.5-0.4C141.7,11.1,141.3,16.2,140.4,21.1z"/>
			<path fill="#FFE6B3" d="M118,3.4c-0.5,0-0.9,0.1-1.4,0.2c0,0.1,0,0.1,0,0.2c0.6,2.6,0.9,5.2,0.9,7.9c0,2.4,0.1,4.8-0.2,7.2     c-0.5,4.6-1.3,9.2-1.6,13.9c-0.2,2.7-0.3,5.5,0,8.3c0.1,1.3,0.4,2.9,1.1,4.1c0.2,0.4,0.6,0.8,1,1.2c0.5,0.4,1,0.6,1.5,0.6     c1.3,0.1,2.6-0.6,3.7-1.4c2.8-2.2,4.6-5.4,5.9-8.6c2.8-6.8,4-14.5,4.3-21.8c0.1-2.9,0-5.7,0.3-8.6c0.1-0.6,0.1-1.2,0.2-1.9     c-0.4-0.1-0.9-0.2-1.3-0.2c-0.6,5.6-0.6,11.9-0.7,13.3c-0.3,3.8-0.8,7.5-1.7,11.2c-0.9,3.8-2.1,7.7-4.1,11.1     c-0.9,1.5-1.9,2.9-3.2,4c-0.8,0.7-1.8,1.5-2.8,1.5c-0.6,0-1-0.2-1.4-0.7c-0.5-0.7-0.8-1.5-0.9-2.3c-0.5-2.5-0.5-5.2-0.4-7.7     c0.1-2.9,0.4-5.8,0.8-8.6c0.3-2.1,0.6-4.2,0.8-6.3c0.2-1.5,0.2-2.9,0.3-4.4c0.1-2.6,0.1-5.3-0.2-7.9C118.6,6,118.4,4.7,118,3.4z"/>
			<path fill="#FFE6B3" d="M103.9,29.8c0.2,0.4,0.5,0.8,0.7,1.2c0.4-0.2,0.7-0.4,1.1-0.7c3-2.3,4.3-5.9,4.7-9.5     c0.5-4.1,0.1-8.2-0.1-12.2c0-1.1-0.1-2.3-0.1-3.6c-0.5,0.2-0.9,0.3-1.4,0.5c0,2.2,0.2,4.5,0.3,6.7c0.2,3.9,0.5,8.2-0.8,12     c-0.6,1.7-1.5,3.4-2.9,4.6C104.9,29.1,104.5,29.5,103.9,29.8z"/>
		</g>
	</g>
</g>
</svg>